<svg enable-background="new -56 259.4 500 97.6" height="97.6" viewBox="-56 259.4 500 97.6" width="500" xmlns="http://www.w3.org/2000/svg"><g fill="#3b5998"><path d="m218.9 291.8c-7.5-.8-14 1.5-19.5 8.1v-2.1-35.6-.4-2.4l-19.9 2.4v93.8h19.9v-5.6c2.7 1.9 5.3 4.2 8.3 5.3 11.6 4.2 26.9.8 32.2-14.7 3.4-9.9 3.3-20.1.8-30.2-2.9-11.2-10.3-17.3-21.8-18.6zm2.9 40.7c-.9 6.2-5.8 9.4-11.6 9-1.5-.1-2.8-.4-4-.9-4.7-2.7-6.1-7.2-6.5-10.1-.3-4.4-.7-13.6 1.5-17.9 1.8-3.3 5-5.1 9.2-5.3 6-.2 10.5 2.8 11.4 8.9.8 5.3.8 10.9 0 16.3z"/><path d="m289.4 293c-6.9-1.8-13.9-1.8-20.8 0-10.3 2.8-17.3 9.3-19.5 19.7-1.2 5.7-1.5 11.7-1.1 17.5.7 13.3 9 22.8 21.7 25.7.2 0 .4.1.5.1h.1l1.5.3h.5c.6.1 1.4.2 2.1.3 2.5.3 5.7.5 8.3.1h.4c13.2-.7 23.2-9 26.1-21.8 1.6-7 1.6-14 .1-21-2.3-10.9-9-18-19.9-20.9zm.8 38.5c-.1.4-.1.8-.2 1.2-1.3 5.9-5.6 9-11.3 8.8-6.1-.3-10.3-3.9-10.9-10-.4-4.5-.5-9-.1-13.5.6-7 5-10.9 11.6-10.8 5.4.1 9.3 3.2 10.7 8.4 1.3 5.3.4 14.7.2 15.9z"/><path d="m-9.3 292.7h-14.2v-9.4c1-8.9 15.8-7.2 15.8-7.2v-.6-.1-14.7c-.5-.1-29.3-7-35.1 15v.1c-.9 2.7-.8 15.3-.8 16.9h-12.4v16.8h13.1v45.7h19v-45.7h14.6l1.6-16.8z"/><path d="m36.1 300.7c-.2-.3-.5-.5-.7-.7l-.1-.1c-.3-.3-.4-.5-.4-.5-4.5-4.6-6.2-5.7-9.7-6.7-13.5-4-26.6 3.1-30.8 16.7-2.6 8.3-2.6 16.9-1.1 25.4 3.2 18.3 16.9 24.4 31.4 21.4 4.5-.9 7.8-3.7 10.8-7.6 0 0 .3-.3.6-1v8.1h18.6v-63h-18.6zm-1.7 31.7c-.6 5.8-5.3 9.3-10.9 9.1-5.7-.2-9.5-3.3-10.7-8.7-1.5-7.8.3-17 .4-17.8 1.5-5.2 5.3-7.8 10.9-7.7 5.5.1 9.7 3.4 10.3 9 .6 5.3.6 10.8 0 16.1z"/><path d="m111.4 351.2c-.9-3.2-1.8-6.3-2.8-9.3l-.9-3.3s-23.3 11.2-26.9-10.1c-.3-3.5-.2-7.1.2-10.6.9-6.5 4.9-10 11.2-10.6 2.1-.2 4.4-.1 6.5.3 2.9.5 5.7 1.4 8.9 2.1 1.1-3.4 2.2-6.7 3.3-10 .2-.5.3-1 .4-1.4l.5-2c-.1-.3-.4-.5-.9-.8-.5-.4-1.4-.8-2.9-1.3-.6-.2-1.1-.4-1.7-.6-.5-.2-.8-.3-.8-.3-6.1-1.7-12.4-1.9-18.8-1.2-13.4 1.4-22.6 9.4-25.1 22.4-1.3 6.9-1.3 13.9.3 20.8 2.3 10.3 8.6 17 18.8 20 6.7 1.9 13.5 2 20.3 1 2.9-.4 6.9-1.9 9.9-3l1.1-.4z"/><path d="m172.6 326.6c-.1-4.4 0-8.7-.6-13-1.7-11.7-8.8-19.2-20.4-21.1-4.4-.7-9.1-.6-13.6-.2-12.3 1.2-21.6 8.8-23.5 20.3-1.2 7-1.3 14.4-.4 21.4 1.4 10.5 6.5 17.3 15.4 20.5h.1c4.1 1.2 23.9 6.4 41.4-2.4l-.7-2.6c-.8-3.4-1.8-6.8-2.7-10.2l-.1-.3s-.4.1-1 .3c-.8.2-1.5.4-2.3.7-.1 0-.3.1-.4.1-2.6.7-6.4 1.7-10.4 2.2-3.4.3-6.7.4-10.2.1-5.6-.9-9.8-3.9-9.6-10.9h3.2 32.7.8s2.3 0 2.4-.1c0 0 0-.6 0-.7zm-17.9-8.6h-21.5c.1-4.3.6-8.3 4.4-10.7 4-2.6 8.5-2.7 12.6-.4 4.3 2.4 4.7 6.5 4.5 11.1z"/><path d="m444 293.4h-21.1l-18.3 28.7v-59.8-.4-2.4l-19.9 2.4v93.8h19.9v-28.7l18.3 28.7h21.1l-19.9-31.2z"/><path d="m357.3 293c-6.9-1.9-13.9-1.8-20.8 0-10.3 2.8-17.3 9.3-19.5 19.7-1.2 5.7-1.5 11.7-1.1 17.5.7 13.3 9 22.8 21.7 25.7.2 0 .4.1.6.1h.1l1.5.3h.5c.6.1 1.4.2 2.1.3 2.5.3 5.7.5 8.3.1h.4c13.2-.7 23.2-9 26.1-21.8 1.6-7 1.6-14 .1-21-2.4-10.9-9.1-18-20-20.9zm.8 38.5c-.1.4-.1.8-.2 1.2-1.3 5.9-5.6 9-11.3 8.8-6.1-.3-10.3-3.9-10.9-10-.4-4.5-.5-9-.1-13.5.6-7 5-10.9 11.6-10.8 5.4.1 9.3 3.2 10.7 8.4 1.3 5.3.3 14.7.2 15.9z"/></g></svg>