<svg enable-background="new 0 0 200 200" height="200" viewBox="0 0 200 200" width="200" xmlns="http://www.w3.org/2000/svg"><path d="m100 200c-55.2 0-100-44.8-100-100s44.8-100 100-100 100 44.8 100 100-44.8 100-100 100zm-20.7-105.2v16.4h22.3c-3.5 10.6-8.9 16.4-22.3 16.4-13.5 0-24.1-11-24.1-24.5s10.6-24.5 24.1-24.5c7.2 0 11.8 2.5 16 6 3.4-3.4 3.1-3.9 11.8-12-16.9-15.3-43-14.1-58.3 2.8s-14.1 43 2.8 58.3c7.6 6.9 17.5 10.7 27.8 10.7 34.1 0 42.4-29.7 39.7-49.5h-39.8zm74.4.8v-14.3h-10.2v14.3h-14.7v10.2h14.7v14.7h10.2v-14.7h14.3v-10.2z"/></svg>