<svg version="1.1" class="social_instagram_square" xmlns="http://www.w3.org/2000/svg" xmlns:xlink="http://www.w3.org/1999/xlink"
	 width="200" height="200" x="0px" y="0px" viewBox="-184 186 200 200" style="enable-background:new -184 186 200 200;" xml:space="preserve">
<path d="M-184,386V186H16v200H-184z M-31.6,244.2c0-5.1-4.2-9.3-9.3-9.3h-86.5c-5.1,0-9.3,4.2-9.3,9.3v21.7h32.5
	c4.6-6,11.8-10,20-10c8.2,0,15.4,3.9,20,10h32.5C-31.6,265.9-31.6,244.2-31.6,244.2z M-106.2,281c0,12.1,9.9,22,22,22s22-9.9,22-22
	c0-12.1-9.9-22-22-22C-96.3,259-106.2,268.9-106.2,281z M-31.6,269.6h-30.2c1.7,3.4,2.7,7.3,2.7,11.4c0,13.8-11.2,25.1-25.1,25.1
	c-13.8,0-25.1-11.2-25.1-25.1c0-4.1,1-8,2.7-11.4h-30.2v61.1c0,5.1,4.2,9.3,9.3,9.3h86.5c5.1,0,9.3-4.2,9.3-9.3L-31.6,269.6
	L-31.6,269.6z M-84.2,263c9.9,0,18,8,18,18c0,9.9-8,18-18,18s-18-8-18-18C-102.1,271.1-94.1,263-84.2,263z M-54.1,240.9h9.7
	c3.6,0,6.6,3,6.6,6.6v7c0,3.6-3,6.6-6.6,6.6h-9.7c-3.6,0-6.6-3-6.6-6.6v-7C-60.6,243.8-57.7,240.9-54.1,240.9z M-113.4,240.1h3.5
	v21.8h-3.5V240.1z M-119.5,240.1h3.5v21.8h-3.5V240.1z M-125.5,240.1h3.5v21.8h-3.5V240.1z M-131.6,246.5c0-2.6,1.4-4.8,3.5-5.9
	v21.2h-3.5V246.5z"/>
</svg>
