<svg version="1.1" class="social_itunes" xmlns="http://www.w3.org/2000/svg" xmlns:xlink="http://www.w3.org/1999/xlink" x="0px"
	 width="200" height="200" y="0px" viewBox="-99 101 200 200" style="enable-background:new -99 101 200 200;" xml:space="preserve">
<path d="M7.5,147.9c4.5-5.3,12.1-9.2,18.4-9.4c0.8,7.3-2.1,14.7-6.5,20c-4.4,5.3-11.5,9.4-18.6,8.8C-0.1,160.1,3.5,152.6,7.5,147.9z
	"/>
<path d="M43.3,248c-5.2,7.6-10.6,15.2-19.1,15.4c-8.4,0.2-11.1-5-20.6-5S-9,263.2-17,263.5c-8.2,0.3-14.5-8.2-19.7-15.8
	c-10.7-15.5-18.9-43.9-7.9-63c5.4-9.5,15.2-15.5,25.9-15.7c8.1-0.1,15.7,5.4,20.6,5.4s14.2-6.7,23.9-5.7c4.1,0.2,15.5,1.6,22.9,12.4
	c-0.6,0.4-13.7,8-13.5,23.8c0.2,18.9,16.6,25.2,16.7,25.3C51.8,230.6,49.3,239.2,43.3,248z"/>
</svg>
