<svg xmlns="http://www.w3.org/2000/svg" width="16.27" height="20" viewBox="0 0 16.27 20"><title>itunes</title><path d="M9.17,1.5A4.43,4.43,0,0,1,12.11,0a4.37,4.37,0,0,1-1,3.2,3.68,3.68,0,0,1-3,1.41A4.29,4.29,0,0,1,9.17,1.5Zm5.73,16C14.07,18.73,13.2,20,11.84,20s-1.77-.8-3.29-.8-2,.77-3.3.82S2.93,18.69,2.1,17.47C.39,15-.92,10.45.83,7.39A4.91,4.91,0,0,1,5,4.88c1.29,0,2.51.86,3.29.86s2.28-1.07,3.83-.91a4.67,4.67,0,0,1,3.66,2,4.53,4.53,0,0,0-2.16,3.8,4.45,4.45,0,0,0,2.67,4.05A10.38,10.38,0,0,1,14.9,17.52Z"/></svg>