<svg version="1.1" class="social_itunes_circle" xmlns="http://www.w3.org/2000/svg" xmlns:xlink="http://www.w3.org/1999/xlink"
	 width="200" height="200" x="0px" y="0px" viewBox="-99 101 200 200" style="enable-background:new -99 101 200 200;" xml:space="preserve">
<path d="M1,101c-55.2,0-100,44.8-100,100S-54.2,301,1,301s100-44.8,100-100S56.2,101,1,101z M7.4,142c4.5-5.3,12.1-9.2,18.4-9.5
	c0.8,7.3-2.1,14.6-6.5,20c-4.3,5.2-11.5,9.4-18.6,8.9C-0.2,154.2,3.3,146.6,7.4,142z M43.1,241.9c-5.3,7.6-10.6,15.1-19.1,15.3
	c-8.4,0.2-11-4.9-20.6-4.9c-9.6,0-12.5,4.7-20.5,5.1c-8.2,0.3-14.4-8.2-19.7-15.9c-10.7-15.5-19-43.8-7.9-62.9
	c5.5-9.5,15.2-15.5,25.8-15.6c8.1-0.1,15.6,5.5,20.6,5.5s14.2-6.7,23.9-5.8c4,0.2,15.5,1.6,22.8,12.4c-0.6,0.4-13.6,8-13.4,23.8
	c0.2,18.9,16.6,25.1,16.8,25.2C51.6,224.6,49.2,233.2,43.1,241.9z"/>
</svg>
