<svg xmlns="http://www.w3.org/2000/svg" width="30" height="30" viewBox="0 0 30 30"><title>myspace</title><path d="M15,0A15,15,0,1,0,29.85,17.14,6.46,6.46,0,0,0,30,15.61c0-.21,0-.41,0-.61A15,15,0,0,0,15,0Zm4.49,6.13a2.62,2.62,0,1,1-2.62,2.62A2.62,2.62,0,0,1,19.49,6.13ZM14,6.81a1.93,1.93,0,1,1-1.93,1.93A1.93,1.93,0,0,1,14,6.81ZM9.55,7.5A1.59,1.59,0,1,1,8,9.09,1.59,1.59,0,0,1,9.55,7.5ZM23.61,23.83H15.39V20.39h-4.1v-2H7.16V13.79a2.39,2.39,0,0,1,2.39-2.27,2.15,2.15,0,0,1,2.25,1.63,3.18,3.18,0,0,1,2.33-.92,3.33,3.33,0,0,1,2.62,1.66,4.33,4.33,0,0,1,3-1,3.93,3.93,0,0,1,3.81,3.63Z"/></svg>