<svg version="1.1" class="social_phone_circle" xmlns="http://www.w3.org/2000/svg" xmlns:xlink="http://www.w3.org/1999/xlink" x="0px"
	 width="200" height="200" y="0px" viewBox="-205 297 200 200" style="enable-background:new -205 297 200 200;" xml:space="preserve">
<g>
	<path d="M-117.7,351.1h25.5v6.6h-25.5V351.1z"/>
	<path d="M-111.4,436.4h12.7v6.6h-12.7V436.4z"/>
	<path d="M-130.5,364.2h50.9v65.6h-50.9V364.2z"/>
	<path d="M-105,297c-55.2,0-100,44.8-100,100s44.8,100,100,100S-5,452.2-5,397S-49.8,297-105,297z M-73.2,436.4
		c0,7.2-5.7,13.1-12.7,13.1h-38.2c-7.1,0-12.7-5.9-12.7-13.1v-78.8c0-7.2,5.7-13.1,12.7-13.1h38.2c7.1,0,12.7,5.9,12.7,13.1V436.4z"
		/>
</g>
</svg>
