<svg xmlns="http://www.w3.org/2000/svg" width="15.37" height="20" viewBox="0 0 15.37 20"><title>pinterest</title><path d="M14.36,3.13A6.62,6.62,0,0,0,11.71.8,8,8,0,0,0,8.18,0,9.07,9.07,0,0,0,5.74.31a8.06,8.06,0,0,0-2.22.94A8.08,8.08,0,0,0,1.68,2.73a6.06,6.06,0,0,0-1.23,2A6.43,6.43,0,0,0,0,7.18,6.5,6.5,0,0,0,.14,8.46a8.45,8.45,0,0,0,.39,1.3,3.22,3.22,0,0,0,.73,1.15,2.46,2.46,0,0,0,1.09.67.79.79,0,0,0,.2,0c.17,0,.32-.17.44-.54a2.9,2.9,0,0,0,.17-.88A.75.75,0,0,0,3,9.82c-.09-.17-.2-.36-.32-.55a3.81,3.81,0,0,1-.31-.78,3.51,3.51,0,0,1-.16-1A5.24,5.24,0,0,1,3.84,3.52,5.54,5.54,0,0,1,7.85,2a5,5,0,0,1,3.43,1.17A4,4,0,0,1,12.6,6.35c0,.38,0,.78-.08,1.2a11.72,11.72,0,0,1-.24,1.33,6,6,0,0,1-.46,1.33,6.1,6.1,0,0,1-.67,1.14,2.51,2.51,0,0,1-.94.83A2.57,2.57,0,0,1,9,12.47,1.85,1.85,0,0,1,7.67,12a1.68,1.68,0,0,1-.54-1.26,7.66,7.66,0,0,1,.53-2.25,7.72,7.72,0,0,0,.53-2.29,1.89,1.89,0,0,0-.41-1.24,1.39,1.39,0,0,0-1.14-.49,1.88,1.88,0,0,0-1.59.88,3.24,3.24,0,0,0-.63,1.88,4.61,4.61,0,0,0,.38,2c0,.23-.26,1-.62,2.43s-.64,2.54-.8,3.46a13.77,13.77,0,0,0-.26,2.48c0,.25.06,1,.17,2.26L3.4,20l.16-.06.76-1c.2-.3.37-.6.55-.93l.38-.76a5.21,5.21,0,0,0,.3-.84c.12-.39.21-.69.25-.85s.13-.55.28-1.14.26-1,.34-1.35a2.44,2.44,0,0,0,1.16,1.05,3.8,3.8,0,0,0,1.62.38A5.48,5.48,0,0,0,11.47,14a5.27,5.27,0,0,0,1.74-1.23,7.44,7.44,0,0,0,1.2-1.8,9.07,9.07,0,0,0,.72-2.13,11.4,11.4,0,0,0,.23-2.26A5.72,5.72,0,0,0,14.36,3.13Z"/></svg>