<svg xmlns="http://www.w3.org/2000/svg" width="21.3" height="20" viewBox="0 0 21.3 20"><title>snapchat</title><path d="M10.87,0h-.42A6.11,6.11,0,0,0,8,.51a5.57,5.57,0,0,0-1.56,1,6,6,0,0,0-1.3,1.87,10.55,10.55,0,0,0-.27,4.31h0l0,.47a.92.92,0,0,1-.35.06,2.31,2.31,0,0,1-1-.26.83.83,0,0,0-.36-.07,1.24,1.24,0,0,0-.64.18.88.88,0,0,0-.45.57.79.79,0,0,0,.3.75,2.61,2.61,0,0,0,.79.46l.31.1c.39.13,1,.32,1.15.69a.94.94,0,0,1-.1.72v0a6.41,6.41,0,0,1-1.08,1.66,6.31,6.31,0,0,1-1.29,1.15,4.8,4.8,0,0,1-1.82.71.51.51,0,0,0-.42.53.54.54,0,0,0,.05.21h0a1.45,1.45,0,0,0,.73.62,8.49,8.49,0,0,0,2.08.54,2,2,0,0,1,.13.46c0,.16.08.33.13.5a.54.54,0,0,0,.57.41,3.41,3.41,0,0,0,.49-.06A5.14,5.14,0,0,1,5.3,18a5.49,5.49,0,0,1,.8.06,3.83,3.83,0,0,1,1.49.78A4.86,4.86,0,0,0,10.53,20h.26a4.78,4.78,0,0,0,2.94-1.15h0a3.8,3.8,0,0,1,1.49-.77A5.49,5.49,0,0,1,16,18a5.05,5.05,0,0,1,1.12.12,2.58,2.58,0,0,0,.49.06h0a.54.54,0,0,0,.54-.4,4.54,4.54,0,0,0,.12-.5,2.13,2.13,0,0,1,.13-.46,8.49,8.49,0,0,0,2.08-.54,1.45,1.45,0,0,0,.73-.62.63.63,0,0,0,.05-.22.52.52,0,0,0-.42-.53c-2.84-.46-4.13-3.39-4.18-3.51v0a.85.85,0,0,1-.1-.72c.16-.37.76-.56,1.15-.69l.31-.1a2.29,2.29,0,0,0,.85-.51.75.75,0,0,0,.26-.59.93.93,0,0,0-.68-.8A1.4,1.4,0,0,0,18,7.91a1,1,0,0,0-.43.08,2.27,2.27,0,0,1-.88.26.92.92,0,0,1-.3-.06c0-.14,0-.27,0-.42V7.71a10.38,10.38,0,0,0-.27-4.31,6,6,0,0,0-1.3-1.88,5.72,5.72,0,0,0-1.56-1A6.27,6.27,0,0,0,10.87,0"/></svg>