<svg version="1.1" id="social_snapchat" xmlns="http://www.w3.org/2000/svg" xmlns:xlink="http://www.w3.org/1999/xlink" x="0px"
	 width="200" height="200" y="0px" viewBox="-99 101 200 200" style="enable-background:new -99 101 200 200;" xml:space="preserve">
<path d="M3,107.1L3,107.1c-0.2,0-0.3,0-0.5,0c-1.2,0-3.3,0-3.4,0c-4.4,0-13.3,0.6-22.9,4.8c-5.5,2.4-10.4,5.7-14.6,9.7
	c-5,4.8-9.1,10.7-12.2,17.5c-4.5,10-3.4,26.9-2.6,40.5l0,0c0.1,1.5,0.2,3,0.3,4.4c-0.7,0.3-1.7,0.6-3.3,0.6c-2.5,0-5.5-0.8-8.9-2.4
	c-1-0.5-2.1-0.7-3.4-0.7c-2,0-4.1,0.6-6,1.7c-2.3,1.4-3.8,3.3-4.2,5.4c-0.3,1.4-0.3,4.2,2.8,7c1.7,1.6,4.2,3,7.4,4.3
	c0.8,0.3,1.9,0.7,2.9,1c3.7,1.2,9.3,3,10.8,6.4c0.7,1.7,0.4,4-0.9,6.8c0,0.1-0.1,0.1-0.1,0.2c-0.3,0.8-3.5,8-10.1,15.6
	c-3.7,4.3-7.8,7.9-12.2,10.8c-5.3,3.4-11,5.7-17.1,6.7c-2.4,0.4-4,2.5-3.9,4.9c0,0.7,0.2,1.4,0.5,2l0,0c1,2.2,3.2,4.1,6.8,5.8
	c4.4,2,11,3.8,19.6,5.1c0.4,0.8,0.9,2.9,1.2,4.3c0.3,1.5,0.7,3.1,1.2,4.7c0.5,1.8,1.9,3.9,5.4,3.9c1.3,0,2.8-0.3,4.6-0.6
	c2.6-0.5,6.1-1.2,10.5-1.2c2.4,0,5,0.2,7.5,0.6c4.9,0.8,9.1,3.8,14,7.3c7.2,5.1,15.3,10.8,27.6,10.8c0.3,0,0.7,0,1,0
	c0.4,0,0.9,0,1.5,0c12.4,0,20.5-5.7,27.6-10.8l0,0c4.9-3.5,9.1-6.4,14-7.2c2.5-0.4,5.1-0.6,7.5-0.6c4.2,0,7.5,0.5,10.5,1.1
	c1.9,0.4,3.4,0.6,4.6,0.6h0.1h0.1c2.5,0,4.4-1.4,5.1-3.8c0.5-1.6,0.8-3.1,1.1-4.7c0.3-1.3,0.8-3.5,1.2-4.3
	c8.6-1.3,15.2-3.1,19.6-5.1c3.6-1.7,5.8-3.6,6.8-5.8c0.3-0.7,0.5-1.4,0.5-2.1c0.1-2.4-1.6-4.5-3.9-4.9c-26.7-4.4-38.8-31.9-39.3-33
	c0-0.1-0.1-0.2-0.1-0.2c-1.4-2.8-1.7-5.1-0.9-6.8c1.5-3.4,7.1-5.2,10.8-6.4c1.1-0.3,2.1-0.7,2.9-1c3.6-1.4,6.3-3,8-4.8
	c2.1-2.1,2.5-4.1,2.4-5.5c-0.1-3.2-2.5-6.1-6.4-7.5c-1.3-0.5-2.8-0.8-4.4-0.8c-1,0-2.6,0.1-4,0.8c-3.1,1.5-5.9,2.3-8.3,2.4
	c-1.3-0.1-2.2-0.3-2.8-0.6c0.1-1.3,0.2-2.5,0.2-3.9v-0.6c0.9-13.6,1.9-30.5-2.6-40.5c-3.1-6.9-7.2-12.8-12.2-17.6
	c-4.2-4-9.2-7.3-14.6-9.7C16.3,107.7,7.5,107.1,3,107.1"/>
</svg>
