<svg version="1.1" class="social_instagram" xmlns="http://www.w3.org/2000/svg" xmlns:xlink="http://www.w3.org/1999/xlink" x="0px"
	 width="200" height="200" y="0px" viewBox="-99 101 200 200" style="enable-background:new -99 101 200 200;" xml:space="preserve">
<path d="M41.6,237.2v-44.3h-9.2c0.9,2.9,1.4,5.9,1.4,9c0,5.7-1.5,11-4.4,15.9c-2.9,4.8-6.9,8.7-11.9,11.5c-5,2.8-10.5,4.3-16.4,4.3
	c-9,0-16.6-3.1-23-9.2c-6.4-6.2-9.6-13.6-9.6-22.4c0-3.1,0.5-6.1,1.4-9h-9.7v44.3c0,1.2,0.4,2.2,1.2,3c0.8,0.8,1.8,1.2,3,1.2h73
	c1.2,0,2.1-0.4,2.9-1.2C41.2,239.4,41.6,238.4,41.6,237.2L41.6,237.2z M22.2,200.8c0-5.7-2-10.4-6.2-14.4s-9.1-6-14.9-6
	c-5.8,0-10.8,2-14.9,6c-4.1,4-6.2,8.8-6.2,14.4c0,5.7,2,10.4,6.2,14.4s9.1,6,14.9,6c5.8,0,10.8-2,14.9-6S22.2,206.4,22.2,200.8z
	 M41.6,176.1v-11.3c0-1.3-0.5-2.4-1.4-3.3s-2-1.4-3.4-1.4H25c-1.3,0-2.4,0.5-3.4,1.4c-0.9,0.9-1.4,2-1.4,3.3v11.3
	c0,1.3,0.5,2.4,1.4,3.4c0.9,0.9,2,1.4,3.4,1.4h11.9c1.3,0,2.4-0.5,3.4-1.4C41.2,178.6,41.6,177.5,41.6,176.1z M53.5,162V240
	c0,3.7-1.3,6.9-4,9.5c-2.6,2.6-5.8,4-9.5,4h-78c-3.7,0-6.9-1.3-9.5-4c-2.6-2.6-4-5.8-4-9.5V162c0-3.7,1.3-6.9,4-9.5
	c2.6-2.6,5.8-4,9.5-4h78c3.7,0,6.9,1.3,9.5,4C52.2,155.1,53.5,158.2,53.5,162z"/>
</svg>
