<svg version="1.1" id="social_twitter_square" xmlns="http://www.w3.org/2000/svg" xmlns:xlink="http://www.w3.org/1999/xlink"
	 width="200" height="200" x="0px" y="0px" viewBox="-99 101 200 200" style="enable-background:new -99 101 200 200;" xml:space="preserve">
<path d="M-99,101v200h200V101H-99z M42.9,179.5c0,0.9,0.1,1.8,0.1,2.8c0,28.5-21.7,61.4-61.4,61.4c-12.2,0-23.6-3.5-33.1-9.7
	c1.7,0.2,3.4,0.3,5.1,0.3c10.1,0,19.4-3.4,26.8-9.3c-9.5-0.2-17.4-6.4-20.1-15c1.3,0.3,2.7,0.4,4,0.4c1.9,0,3.8-0.3,5.6-0.8
	c-9.9-2-17.3-10.7-17.3-21.1v-0.3c2.9,1.6,6.2,2.6,9.8,2.7c-5.8-3.9-9.6-10.5-9.6-17.9c0-3.9,1-7.7,2.9-10.9
	c10.7,13.1,26.6,21.6,44.5,22.6c-0.4-1.6-0.6-3.2-0.6-4.9c0-11.9,9.7-21.5,21.5-21.5c6.2,0,11.8,2.6,15.7,6.8
	c4.9-1,9.6-2.7,13.7-5.2c-1.6,5-5,9.3-9.5,12c4.3-0.5,8.6-1.7,12.4-3.4C50.8,172.7,47.2,176.4,42.9,179.5z"/>
</svg>
