<svg xmlns="http://www.w3.org/2000/svg" width="200" height="200" viewBox="0 0 200 200"><title>social_yelp_circle</title><path d="M100,0A100,100,0,1,0,200,100,100,100,0,0,0,100,0ZM64.38,121.61a3.68,3.68,0,0,1-3.13-2.11,13.36,13.36,0,0,1-1-4.4c-0.59-5.72.13-14.32,1.84-17.05a3.68,3.68,0,0,1,3.27-1.87c0.86,0,1.61.29,18.55,7.27l4.94,2a4.53,4.53,0,0,1,2.77,4.63,4.25,4.25,0,0,1-3,4.1l-7,2.25C65.74,121.51,65.22,121.66,64.38,121.61Zm35.89,10.59c0,16.56-.08,17.11-0.35,17.9a3.7,3.7,0,0,1-3,2.33c-4.21.71-17.41-4.13-20.16-7.41a4,4,0,0,1-1-2.15,3.26,3.26,0,0,1,.19-1.52c0.29-.83.78-1.47,12.65-15.41,0,0,3.46-4.1,3.46-4.1a4.56,4.56,0,0,1,5.25-1.18,4.26,4.26,0,0,1,3,4.16C100.31,124.89,100.27,132.2,100.27,132.2ZM97.43,97.58c-0.85.28-3.46,1.08-6.66-4.11,0,0-21.65-34-22.15-35.09a3.81,3.81,0,0,1,1.11-3.6C73,51.43,90.43,46.53,95,47.67a3.76,3.76,0,0,1,2.89,2.65c0.26,1.46,2.38,33.05,2.69,40.15C100.87,96.51,98.28,97.32,97.43,97.58Zm11,1.71c0.05-.06,4.39-6,4.39-6,9.58-13.11,10.09-13.78,10.78-14.24a3.72,3.72,0,0,1,3.81-.15c3.79,1.85,11.5,13.29,12,17.68a0.78,0.78,0,0,1,0,.15,3.68,3.68,0,0,1-1.54,3.44c-0.71.46-1.4,0.69-19.3,5a54.77,54.77,0,0,0-5.34,1.41l0.1-.15a4.52,4.52,0,0,1-4.91-2.14A4.24,4.24,0,0,1,108.45,99.28ZM140,127.46c-0.61,4.25-9.29,15.3-13.27,16.87a3.62,3.62,0,0,1-3.74-.39c-0.68-.53-1.39-1.6-10.74-16.79l-2.78-4.52a4.53,4.53,0,0,1,.47-5.38,4.28,4.28,0,0,1,4.87-1.54c0.08,0,7,2.33,7,2.33,15.75,5.17,16.26,5.36,16.93,5.86A3.7,3.7,0,0,1,140,127.46Z"/></svg>