<svg version="1.1" id="social_vimeo" xmlns="http://www.w3.org/2000/svg" xmlns:xlink="http://www.w3.org/1999/xlink" x="0px"
     width="200" height="200" y="0px" viewBox="-99 101 200 200" style="enable-background:new -99 101 200 200;" xml:space="preserve">
<path d="M57.9,174.4c-6.4,36.9-42.3,68.1-53.2,75.3c-10.8,7.1-20.7-2.9-24.2-10.4c-4.1-8.6-16.3-55.3-19.6-59.3
    c-3.2-3.9-12.8,3.9-12.8,3.9l-4.7-6.2c0,0,19.6-23.8,34.5-26.8c15.8-3.2,15.8,24.7,19.6,40.2c3.7,15,6.2,23.5,9.4,23.5
    s9.3-8.3,16.1-21.1c6.7-12.8-0.3-24.1-13.4-16.1C14.7,145.2,64.4,137.5,57.9,174.4L57.9,174.4z"/>
</svg>
