<svg xmlns="http://www.w3.org/2000/svg" width="200" height="200" viewBox="0 0 200 200"><title>social_yelp_square</title><path d="M0,0V200H200V0H0ZM64.45,121.59a3.68,3.68,0,0,1-3.13-2.11,13.36,13.36,0,0,1-1-4.4c-0.59-5.72.13-14.32,1.84-17.05a3.68,3.68,0,0,1,3.15-1.85c0.86,0,1.61.29,18.55,7.27l4.94,2a4.53,4.53,0,0,1,2.77,4.63,4.25,4.25,0,0,1-3,4.1l-7,2.25C65.81,121.5,65.29,121.64,64.45,121.59Zm35.82,10.61c0,16.56-.07,17.11-0.35,17.9A3.7,3.7,0,0,1,97,152.43c-4.21.72-17.41-4.13-20.16-7.41a4,4,0,0,1-1-2.15,3.26,3.26,0,0,1,.19-1.52c0.3-.83.79-1.47,12.61-15.42,0,0,3.46-4.1,3.46-4.1a4.56,4.56,0,0,1,5.25-1.18,4.26,4.26,0,0,1,3,4.16C100.27,124.89,100.27,132.2,100.27,132.2ZM97.43,97.57c-0.85.28-3.46,1.08-6.66-4.11,0,0-21.65-34.09-22.15-35.09a3.81,3.81,0,0,1,1.11-3.6C73,51.43,90.44,46.54,95,47.67a3.76,3.76,0,0,1,2.86,2.65c0.25,1.46,2.38,33.06,2.69,40.15h0C100.87,96.51,98.28,97.29,97.43,97.57Zm11,1.8c0-.1,4.39-6,4.39-6,9.58-13.11,10.08-13.79,10.78-14.24a3.72,3.72,0,0,1,3.81-.15c3.84,1.85,11.54,13.29,12,17.68a0.78,0.78,0,0,1,0,.15,3.68,3.68,0,0,1-1.54,3.44c-0.71.43-1.4,0.66-19.3,5a54.76,54.76,0,0,0-5.33,1.49l0.1-.15a4.52,4.52,0,0,1-4.91-2.14A4.24,4.24,0,0,1,108.41,99.37ZM140,127.47c-0.6,4.24-9.27,15.29-13.27,16.87h0a3.62,3.62,0,0,1-3.74-.39c-0.67-.53-1.39-1.6-10.74-16.79l-2.78-4.52a4.53,4.53,0,0,1,.47-5.38,4.28,4.28,0,0,1,4.87-1.54c0.08,0,7,2.33,7,2.33,15.75,5.16,16.26,5.36,16.93,5.86A3.7,3.7,0,0,1,140,127.47Z"/></svg>