<svg version="1.1" id="social_youtube_square" xmlns="http://www.w3.org/2000/svg" xmlns:xlink="http://www.w3.org/1999/xlink"
	 width="200" height="200" x="0px" y="0px" viewBox="-99 101 200 200" style="enable-background:new -99 101 200 200;" xml:space="preserve">
<path d="M-99,101v200h200V101H-99z M58.5,221.5c0,9.8-8.4,17.8-18.7,17.8h-77.4c-10.3,0-18.8-8-18.8-17.8v-41
	c0-9.7,8.5-17.8,18.8-17.8h77.4c10.3,0,18.7,8,18.7,17.8V221.5z"/>
<path d="M24.1,198.1l-38.2-21c-1.4-0.8-3.3-0.9-4.8-0.3c-1.5,0.6-2.5,1.8-2.5,3.1v41.9c0,1.3,1,2.5,2.5,3.1c0.7,0.3,1.4,0.4,2.1,0.4
	c0.9,0,1.9-0.3,2.7-0.7l38.2-21c1.2-0.6,1.9-1.6,1.9-2.8C26,199.8,25.3,198.8,24.1,198.1z"/>
</svg>
