<svg version="1.1" id="social_email" xmlns="http://www.w3.org/2000/svg" xmlns:xlink="http://www.w3.org/1999/xlink" x="0px"
     width="200" height="200" y="0px" viewBox="-99 101 200 200" style="enable-background:new -99 101 200 200;" xml:space="preserve">
<path d="M46.1,241h-90.2c-5.5,0-9.9-4.4-9.9-9.9v-60.1c0-5.5,4.4-9.9,9.9-9.9h90.2c5.5,0,9.9,4.4,9.9,9.9v60.1
    C56,236.6,51.6,241,46.1,241z M40.8,231l-28.7-25.1L0.8,216.1l-11.3-10.2L-39.1,231H40.8L40.8,231z M-44.4,226.1l28.1-25.1
    l-28.1-25.1V226.1L-44.4,226.1z M-39.1,170.9l40,35l40-35L-39.1,170.9L-39.1,170.9z M46.1,175.9L17.9,201l28.2,25.1V175.9
    L46.1,175.9z"/>
</svg>
