<svg version="1.1" class="social_twitter" xmlns="http://www.w3.org/2000/svg" xmlns:xlink="http://www.w3.org/1999/xlink" x="0px"
     width="200" height="200" y="0px" viewBox="-99 101 200 200" style="enable-background:new -99 101 200 200;" xml:space="preserve">
<path d="M53.5,168.6c-3,4.4-6.6,8.1-10.8,11.1c0.1,0.6,0.1,1.6,0.1,2.8c0,5.8-0.8,11.6-2.5,17.3
    c-1.7,5.7-4.3,11.3-7.7,16.5s-7.6,10-12.3,14c-4.8,4-10.5,7.3-17.2,9.7c-6.7,2.4-13.9,3.6-21.5,3.6c-12,0-23-3.2-33-9.7
    c1.6,0.2,3.3,0.3,5.2,0.3c10,0,18.9-3,26.7-9.2c-4.7-0.1-8.8-1.5-12.5-4.3c-3.7-2.8-6.2-6.3-7.6-10.6c1.5,0.2,2.8,0.3,4,0.3
    c1.9,0,3.8-0.3,5.7-0.7c-5-1-9.1-3.5-12.3-7.4c-3.3-3.9-4.9-8.5-4.9-13.7v-0.3c3,1.7,6.2,2.6,9.7,2.7c-2.9-1.9-5.2-4.5-7-7.7
    s-2.6-6.6-2.6-10.2c0-3.9,1-7.5,2.9-10.9c5.4,6.6,11.9,11.9,19.6,15.9s16,6.2,24.7,6.6c-0.4-1.7-0.5-3.3-0.5-4.9
    c0-5.9,2.1-11,6.3-15.2s9.3-6.3,15.2-6.3c6.2,0,11.4,2.3,15.7,6.8c4.8-0.9,9.4-2.7,13.7-5.2c-1.6,5.1-4.8,9.1-9.5,11.9
    C45.3,171.4,49.4,170.3,53.5,168.6L53.5,168.6z"/>
</svg>
