<?xml version="1.0" encoding="utf-8"?>
<!-- Generator: Adobe Illustrator 19.1.0, SVG Export Plug-In . SVG Version: 6.00 Build 0)  -->
<svg version="1.1" id="Layer_1" xmlns="http://www.w3.org/2000/svg" xmlns:xlink="http://www.w3.org/1999/xlink" x="0px" y="0px"
	 width="500px" height="144.6px" viewBox="0 0 500 144.6" enable-background="new 0 0 500 144.6" xml:space="preserve">
<g>
	<g>
		<path fill-rule="evenodd" clip-rule="evenodd" fill="#231F20" d="M124.3,106.1c-3.4,7.5-5,10.9-9.4,17.5
			c-6.1,9.3-14.7,20.9-25.4,21c-9.5,0.1-11.9-6.2-24.8-6.1c-12.9,0.1-15.5,6.2-25,6.1C29.1,144.5,21,134,14.9,124.8
			C-2.2,98.8-4,68.3,6.5,52.1C14,40.6,25.8,33.9,36.9,33.9c11.3,0,18.4,6.2,27.7,6.2c9.1,0,14.6-6.2,27.6-6.2
			c9.9,0,20.3,5.4,27.8,14.7C95.6,61.9,99.6,96.8,124.3,106.1L124.3,106.1z"/>
		<path fill-rule="evenodd" clip-rule="evenodd" fill="#231F20" d="M82.4,23.5c4.7-6.1,8.3-14.7,7-23.5c-7.8,0.5-16.8,5.5-22.1,11.9
			c-4.8,5.8-8.8,14.5-7.2,22.9C68.5,35,77.3,30,82.4,23.5L82.4,23.5z"/>
	</g>
	<g>
		<path fill="#231F20" d="M167.6,64.8c0,5.3-4,9.5-10.3,9.5c-6,0-10-4.3-9.9-9.5c-0.1-5.5,3.9-9.7,10-9.7
			C163.6,55.1,167.5,59.3,167.6,64.8z M147.9,143.2V81.9H167v61.3H147.9z"/>
		<path fill="#231F20" d="M199.2,74.7h-22.7V58.7h65v16.1h-23.1v68.5h-19.2V74.7z"/>
		<path fill="#231F20" d="M302.1,123.5c0,8,0.3,14.6,0.5,19.7H286l-0.9-8.7h-0.4c-2.4,3.8-8.2,10-19.2,10
			c-12.4,0-21.6-7.8-21.6-26.7v-36h19.2v33c0,8.9,2.9,14.3,9.5,14.3c5.3,0,8.3-3.6,9.5-6.6c0.5-1.1,0.6-2.6,0.6-4.1V81.9h19.2V123.5
			z"/>
		<path fill="#231F20" d="M317.4,101.4c0-7.7-0.3-14.2-0.5-19.6h16.6l0.9,8.4h0.4c2.5-3.9,8.8-9.8,18.9-9.8c12.5,0,22,8.3,22,26.3
			v36.4h-19.1v-34c0-7.9-2.8-13.3-9.7-13.3c-5.3,0-8.4,3.6-9.7,7.2c-0.5,1.3-0.8,3-0.8,4.8v35.4h-19.1V101.4z"/>
		<path fill="#231F20" d="M405.5,118.6c0.6,7.9,8.4,11.7,17.3,11.7c6.5,0,11.8-0.9,16.9-2.5l2.5,12.9c-6.3,2.5-13.9,3.9-22.2,3.9
			c-20.8,0-32.7-12.2-32.7-31.4c0-15.6,9.7-32.7,31-32.7c19.8,0,27.3,15.4,27.3,30.6c0,3.3-0.4,6.1-0.6,7.5H405.5z M428,105.6
			c0-4.6-2-12.4-10.8-12.4c-8,0-11.3,7.3-11.8,12.4H428z"/>
		<path fill="#231F20" d="M457,126.5c3.5,2.1,10.8,4.6,16.4,4.6c5.8,0,8.2-2,8.2-5.1c0-3.1-1.9-4.6-9-7
			c-12.7-4.3-17.6-11.2-17.4-18.3c0-11.5,9.8-20.2,25-20.2c7.1,0,13.5,1.6,17.3,3.5L494,97.2c-2.8-1.5-8-3.5-13.3-3.5
			c-4.6,0-7.3,1.9-7.3,5c0,2.9,2.4,4.4,9.9,7c11.7,4,16.6,9.9,16.7,18.9c0,11.4-9,19.9-26.6,19.9c-8,0-15.2-1.9-19.8-4.4L457,126.5z
			"/>
	</g>
</g>
</svg>
