<svg version="1.1" class="social_linkein_circle" xmlns="http://www.w3.org/2000/svg" xmlns:xlink="http://www.w3.org/1999/xlink" x="0px"
	 width="200" height="200" y="0px" viewBox="-299 297 200 200" style="enable-background:new -299 297 200 200;" xml:space="preserve">
<path d="M-199,297c-55.2,0-100,44.8-100,100s44.8,100,100,100c50.4,0,92-37.2,99-85.7c0.7-3.3,1-6.7,0.9-10.2
	c0.1-1.4,0.1-2.7,0.1-4.1C-99,341.8-143.8,297-199,297z M-227.6,447.2h-22.6v-67.7h22.6V447.2z M-229.7,366.9
	c-2.3,2.2-5.4,3.3-9.3,3.3h-0.1c-3.7,0-6.7-1.1-9-3.3c-2.3-2.2-3.4-5-3.4-8.3c0-3.4,1.2-6.2,3.5-8.4c2.3-2.2,5.4-3.3,9.2-3.3
	c3.8,0,6.8,1.1,9.1,3.3s3.4,5,3.5,8.4C-226.2,361.8-227.3,364.6-229.7,366.9z M-146.5,408.3v38.8H-169v-36.2c0-4.8-0.9-8.5-2.8-11.2
	s-4.7-4.1-8.6-4.1c-2.9,0-5.3,0.8-7.2,2.4c-1.9,1.6-3.4,3.5-4.3,5.8c-0.5,1.4-0.8,3.2-0.8,5.5v37.8h-22.5
	c0.1-18.2,0.1-32.9,0.1-44.2c0-11.3,0-18-0.1-20.2l-0.1-3.3h22.5v9.6c0.9-1.4,1.8-2.6,2.7-3.6c1-1.1,2.2-2.3,3.9-3.6
	c1.6-1.3,3.6-2.3,5.9-3c2.3-0.7,5-1.1,7.8-1.1c7.8,0,14.1,2.6,18.8,7.8C-148.9,390.8-146.5,398.4-146.5,408.3L-146.5,408.3z"/>
</svg>
