<svg version="1.1" id="social_googleplus" xmlns="http://www.w3.org/2000/svg" xmlns:xlink="http://www.w3.org/1999/xlink" x="0px"
	 width="200" height="200" y="0px" viewBox="-99 101 200 200" style="enable-background:new -99 101 200 200;" xml:space="preserve">
<g>
	<path d="M5.9,151.1H-22c0,0-28.3,0.7-28.3,24.6c0,23.9,24.7,21.1,24.7,21.1v6.1c0,2.4,3.3,1.6,3.7,6.6c-1.7,0-34.3-0.9-34.3,20.8
		s28.8,20.6,28.8,20.6s33.3,1.5,33.3-25.4c0-16.1-19-21.3-19-27.8c0.1-6.6,14.4-8.5,14.4-23.7c0-9.2-0.8-14.7-8.1-17.9
		C-6.8,153.8,5.9,155.3,5.9,151.1z M-3,227.3c0.6,8.4-8.3,15.8-19.8,16.6c-11.5,0.8-21.3-5.4-21.9-13.8c-0.6-8.4,8.3-15.8,19.8-16.6
		C-13.3,212.7-3.5,218.9-3,227.3z M-20,191c-6.9,1.9-14.5-4.4-17.1-14c-2.6-9.6,0.8-18.9,7.7-20.8c6.8-1.9,14.5,4.4,17.1,14
		C-9.6,179.8-13.1,189.1-20,191z"/>
	<polygon points="38.9,170.4 38.9,151 33.2,151 33.2,170.4 13.8,170.4 13.8,176.1 33.2,176.1 33.2,195.5 38.9,195.5 38.9,176.1
		58.2,176.1 58.2,170.4 	"/>
</g>
</svg>
