<svg version="1.1" id="social_rss" xmlns="http://www.w3.org/2000/svg" xmlns:xlink="http://www.w3.org/1999/xlink" x="0px" y="0px"
	 width="200" height="200" viewBox="206 296 200 200" style="enable-background:new 206 296 200 200;" xml:space="preserve">
<path d="M267.5,420.5c-7.7,0-14,6.3-14,14c0,7.7,6.3,13.9,14,13.9c7.7,0,14-6.2,14-13.9C281.5,426.8,275.2,420.5,267.5,420.5z
	 M253.5,379.2v20.1c13.1,0,25.4,5.1,34.7,14.4c9.3,9.3,14.4,21.6,14.4,34.8h20.2C322.8,410.3,291.7,379.2,253.5,379.2z M253.5,343.5
	v20.1c46.7,0,84.8,38.1,84.8,84.9h20.2C358.5,390.6,311.4,343.5,253.5,343.5z"/>
</svg>
