<svg version="1.1" id="social_linkein" xmlns="http://www.w3.org/2000/svg" xmlns:xlink="http://www.w3.org/1999/xlink" x="0px"
	 width="200" height="200" y="0px" viewBox="-299 297 200 200" style="enable-background:new -299 297 200 200;" xml:space="preserve">
<path d="M-227.6,379.4v67.7h-22.6v-67.7H-227.6z M-226.2,358.5c0,3.3-1.1,6.1-3.5,8.3c-2.3,2.2-5.4,3.3-9.3,3.3h-0.1
	c-3.7,0-6.7-1.1-9-3.3c-2.3-2.2-3.4-5-3.4-8.3c0-3.4,1.2-6.2,3.5-8.4s5.4-3.3,9.2-3.3s6.8,1.1,9.1,3.3
	C-227.4,352.3-226.3,355.1-226.2,358.5z M-146.5,408.3v38.8H-169v-36.2c0-4.8-0.9-8.5-2.8-11.2c-1.8-2.7-4.7-4.1-8.6-4.1
	c-2.9,0-5.3,0.8-7.2,2.4s-3.4,3.5-4.3,5.8c-0.5,1.4-0.8,3.2-0.8,5.5v37.8h-22.5c0.1-18.2,0.1-32.9,0.1-44.2c0-11.3,0-18-0.1-20.2
	l-0.1-3.3h22.5v9.8h-0.1c0.9-1.5,1.8-2.7,2.8-3.8s2.2-2.3,3.9-3.6c1.6-1.3,3.6-2.3,5.9-3c2.3-0.7,5-1.1,7.8-1.1
	c7.8,0,14.1,2.6,18.8,7.8C-148.9,390.8-146.5,398.4-146.5,408.3L-146.5,408.3z"/>
</svg>
