<svg version="1.1" id="social_pinterest_square" xmlns="http://www.w3.org/2000/svg" xmlns:xlink="http://www.w3.org/1999/xlink"
	 width="200" height="200" x="0px" y="0px" viewBox="-99 101 200 200" style="enable-background:new -99 101 200 200;" xml:space="preserve">
<path d="M-99,101v200h64.3l-0.9-1c-1-10.7-1.5-17.1-1.5-19.2c0-6.3,0.8-13.3,2.2-21.1c1.4-7.8,3.7-17.6,6.8-29.4s4.8-18.7,5.3-20.7
	c-2.2-4.4-3.2-10.2-3.2-17.3c0-5.7,1.8-11,5.3-16c3.6-4.9,8.1-7.5,13.5-7.5c4.2,0,7.4,1.4,9.7,4.2c2.3,2.7,3.5,6.3,3.5,10.5
	c0,4.5-1.5,11-4.5,19.5c-3,8.5-4.5,14.9-4.5,19.1s1.5,7.8,4.6,10.7c3.1,2.8,6.8,4.2,11.1,4.2c3.7,0,7.2-0.9,10.5-2.6
	c3.2-1.7,5.9-4,8-7c2.1-2.9,4.1-6.2,5.7-9.7c1.7-3.6,3-7.3,3.9-11.3s1.6-7.7,2-11.3s0.7-7,0.7-10.2c0-11.8-3.7-21-11.2-27.5
	C24.7,151,15,147.7,3,147.7c-13.6,0-25,4.4-34.1,13.3c-9.1,8.8-13.7,20-13.7,33.6c0,3,0.4,5.9,1.3,8.7c0.9,2.8,1.8,5,2.7,6.6
	c1,1.6,1.9,3.1,2.7,4.7c0.8,1.4,1.3,2.5,1.3,3.1c0,1.9-0.5,4.4-1.5,7.5s-2.3,4.6-3.7,4.6c-0.2,0-0.7-0.1-1.7-0.3
	c-3.5-1-6.5-2.9-9.3-5.7c-2.7-2.8-4.8-6-6.2-9.7c-1.4-3.7-2.5-7.3-3.3-11.1s-1.2-7.4-1.2-10.9c0-7.4,1.3-14.3,3.8-20.8
	c2.5-6.5,6.1-12.2,10.5-17c4.4-4.8,9.7-9,15.6-12.6s12.2-6.2,18.9-8c6.7-1.8,13.6-2.6,20.7-2.6c10.8,0,20.7,2.3,30,6.8
	c9.3,4.5,16.8,11.1,22.6,19.8c5.8,8.7,8.7,18.4,8.7,29.3c0,6.5-0.7,12.9-2,19.2c-1.3,6.3-3.3,12.3-6.1,18.1
	c-2.8,5.8-6.2,10.9-10.2,15.3c-4,4.4-8.9,7.9-14.8,10.5S21.6,254,14.6,254c-4.6,0-9.3-1.1-13.8-3.2c-4.6-2.2-7.8-5.2-9.8-9
	c-0.7,2.6-1.6,6.5-2.9,11.5c-1.3,5-2,8.2-2.4,9.7c-0.3,1.4-1.1,3.9-2.1,7.2c-1,3.4-1.9,5.8-2.6,7.2s-1.9,3.6-3.2,6.4
	c-1.4,2.8-3,5.4-4.7,7.9c-1.7,2.5-3.8,5.4-6.4,8.8l-1.4,0.5H101V101H-99z"/>
</svg>
