<svg version="1.1" class="social_googleplus_circle" xmlns="http://www.w3.org/2000/svg" xmlns:xlink="http://www.w3.org/1999/xlink"
     width="200" height="200" x="0px" y="0px" viewBox="-188 189 200 200" style="enable-background:new -188 189 200 200;" xml:space="preserve">
<path d="M-88,389c-55.2,0-100-44.8-100-100s44.8-100,100-100S12,233.8,12,289S-32.8,389-88,389z M-82.9,265.2
    c0-9.3-0.9-14.9-8.2-18.2c0-2.3,12.9-0.8,12.9-5.1h-28.3c0,0-28.7,0.7-28.7,25c0,24.3,25.1,21.5,25.1,21.5v6.2
    c0,2.5,3.4,1.7,3.8,6.7c-1.7,0-34.9-0.9-34.9,21.1c0,22,29.2,21,29.2,21s33.8,1.5,33.8-25.8c0-16.4-19.3-21.7-19.3-28.3
    C-97.4,282.7-82.9,280.8-82.9,265.2z M-24.9,261.6h-19.7v-19.8h-5.8v19.8h-19.7v5.8h19.7v19.7h5.8v-19.7h19.7V261.6z M-87.3,319.5
    c0.6,8.5-8.5,16.1-20.2,16.9c-11.7,0.8-21.7-5.5-22.2-14c-0.6-8.5,8.4-16.1,20.1-16.9C-97.8,304.6-87.8,310.9-87.3,319.5z
     M-104.5,282.6c-7,1.9-14.8-4.5-17.4-14.3c-2.7-9.8,0.8-19.2,7.8-21.1c7-1.9,14.8,4.5,17.4,14.2C-94,271.2-97.5,280.7-104.5,282.6z"
    />
</svg>
