<svg version="1.1" xmlns="http://www.w3.org/2000/svg" xmlns:xlink="http://www.w3.org/1999/xlink" x="0px" y="0px"
	 width="200px" height="200px" viewBox="0 0 200 200" style="enable-background:new 0 0 200 200;" xml:space="preserve">
<path d="M65.3,96.2c0.9,0,1.6,0.3,18.6,7.3l4.9,2c1.8,0.7,2.9,2.5,2.8,4.6c-0.1,2.1-1.3,3.7-3,4.1c0,0-7,2.3-7,2.3
	c-15.8,5.1-16.3,5.2-17.1,5.2c-1.3,0-2.5-0.8-3.1-2.1c-0.5-0.9-0.8-2.5-1-4.4c-0.6-5.7,0.1-14.3,1.8-17.1
	C62.8,96.8,64,96.1,65.3,96.2z M99.9,150.1c0.3-0.8,0.3-1.3,0.4-17.9c0,0,0-7.3,0.1-7.4c0.1-1.8-1-3.4-3-4.2c-2-0.8-4.1-0.3-5.2,1.2
	c0,0-3.5,4.1-3.5,4.1c-11.9,13.9-12.4,14.6-12.6,15.4c-0.2,0.5-0.3,1-0.2,1.5c0.1,0.7,0.4,1.5,1,2.2c2.7,3.3,15.9,8.1,20.2,7.4
	C98.4,152.2,99.5,151.3,99.9,150.1z M126.7,144.3c4-1.6,12.7-12.6,13.3-16.9c0.2-1.5-0.2-2.8-1.3-3.6c-0.7-0.5-1.2-0.7-16.9-5.9
	c0,0-6.9-2.3-7-2.3c-1.7-0.6-3.6,0-4.9,1.5c-1.3,1.6-1.5,3.8-0.5,5.4l2.8,4.5c9.4,15.2,10.1,16.3,10.7,16.8
	C124,144.8,125.3,144.9,126.7,144.3L126.7,144.3z M118.6,105.2c17.9-4.3,18.6-4.6,19.3-5c1.1-0.7,1.6-2,1.5-3.4c0-0.1,0-0.1,0-0.2
	c-0.5-4.4-8.2-15.8-12-17.7c-1.3-0.6-2.7-0.6-3.8,0.1c-0.7,0.5-1.2,1.1-10.8,14.2c0,0-4.3,5.9-4.4,6c-1.1,1.4-1.2,3.4,0,5.1
	c1.2,1.8,3.1,2.6,4.9,2.1c0,0-0.1,0.1-0.1,0.1C114.1,106.3,115.7,105.9,118.6,105.2z M100.6,90.5L100.6,90.5
	c-0.3-7.1-2.4-38.7-2.7-40.1C97.5,49,96.5,48,95,47.7c-4.6-1.1-22,3.8-25.3,7.1c-1,1.1-1.4,2.4-1.1,3.6c0.5,1,22.2,35.1,22.2,35.1
	c3.2,5.2,5.8,4.4,6.7,4.1C98.3,97.3,100.9,96.5,100.6,90.5z"/>
</svg>
