<?xml version="1.0" encoding="utf-8"?>
<!-- Generator: Adobe Illustrator 19.1.0, SVG Export Plug-In . SVG Version: 6.00 Build 0)  -->
<svg version="1.1" id="YouTube_Logo" xmlns="http://www.w3.org/2000/svg" xmlns:xlink="http://www.w3.org/1999/xlink" x="0px"
	 y="0px" width="500px" height="208.6px" viewBox="0 0 500 208.6" enable-background="new 0 0 500 208.6" xml:space="preserve">
<linearGradient id="lozenge_1_" gradientUnits="userSpaceOnUse" x1="350.9996" y1="-2.728484e-12" x2="350.9996" y2="208.6501">
	<stop  offset="0" style="stop-color:#E32E28"/>
	<stop  offset="1" style="stop-color:#BE2126"/>
</linearGradient>
<path id="lozenge_2_" fill="url(#lozenge_1_)" d="M497,45c0,0-2.9-20.4-11.8-29.4C473.8,3.8,461.1,3.7,455.3,3
	c-41.7-3-104.3-3-104.3-3h-0.1c0,0-62.6,0-104.3,3c-5.8,0.7-18.5,0.8-29.9,12.6C207.9,24.6,205,45,205,45s-3,24-3,48v22.5
	c0,24,3,48,3,48s2.9,20.4,11.8,29.4c11.3,11.8,26.2,11.4,32.9,12.7c23.8,2.3,101.3,3,101.3,3s62.6-0.1,104.3-3.1
	c5.8-0.7,18.5-0.8,29.9-12.6c8.9-9,11.8-29.4,11.8-29.4s3-24,3-48V93C500,69,497,45,497,45z"/>
<g id="You">
	<path id="u_2_" d="M186.6,168.9h-19v-11c-7.2,8.2-13.3,12.4-19.9,12.4c-5.8,0-9.9-2.7-11.9-7.7c-1.2-3-2.1-7.7-2.1-14.7V68.1h19
		v74.8c0,4.2,0,6,0,7c0.4,2.8,1.6,3.8,4,3.8c3.6,0,6.9-3.2,10.9-8.8V68.1h19V168.9z"/>
	<path id="o_2_" d="M119.8,101c0-10.8-2.2-18.9-6-24c-5.1-6.9-13-9.7-21-9.7c-9,0-15.9,2.8-21,9.7c-3.9,5.1-6,13.3-6,24l0,35.8
		c0,10.7,1.9,18.1,5.7,23.2c5,6.9,13.2,10.5,21.2,10.5s16.3-3.6,21.4-10.5c3.8-5,5.6-12.4,5.6-23.2V101z M100.8,138.9
		c1,10-2.1,14.9-8,14.9c-5.9,0-9-5-8-14.9V99c-1-10,2.1-14.7,8-14.7c5.9,0,9,4.7,8,14.7L100.8,138.9z"/>
	<path id="y_2_" d="M44.9,114v54.9h-20V114c0,0-20.7-67.3-24.9-79.8h21l14,52.6l13.9-52.6h21L44.9,114z"/>
</g>
<g id="Tube">
	<path id="e_1_" fill="#FFFFFF" d="M475.1,121.9l0-20.4c0-10.7-2.1-18.5-5.9-23.5c-5.1-6.8-12.3-10.4-21.3-10.4
		c-9.2,0-16.4,3.6-21.6,10.4c-3.8,5-6.1,13.3-6.1,23.9v34.9c0,10.6,2.5,18,6.3,23c5.2,6.8,12.4,10.2,21.9,10.2
		c9.4,0,16.9-3.6,21.9-10.8c2.2-3.2,3.6-6.8,4.2-10.8c0.2-1.8,0.6-5.9,0.6-11.8v-2.8h-19c0,7.2,0,11.6-0.1,12.5
		c-1,4.8-3.6,7.2-8.1,7.2c-6.2,0-8.8-4.6-8.8-13.8v-17.9H475.1z M439.1,96c0-9.3,2.6-11.9,8.6-11.9c6,0,8.4,2.8,8.4,12V107l-17,0V96
		z"/>
	<path id="b_1_" fill="#FFFFFF" d="M391.3,67.5c-6.6,0-13.3,4.1-19.1,11.3l0-43.6h-18v133.7h18l0-10c6,7.5,12.6,11.3,19,11.3
		c7.2,0,12.5-3.9,14.9-11.3c1.2-4.2,2-10.7,2-20V99c0-9.4-1.2-15.9-2.4-19.9C403.3,71.6,398.5,67.5,391.3,67.5z M389.2,139.9
		c0,10-2.4,13.8-7.6,13.8c-3,0-6.4-1.5-9.4-4.6l0-60.5c3-3,6.4-4.6,9.4-4.6c5.2,0,7.6,2.9,7.6,12.9V139.9z"/>
	<path id="u_1_" fill="#FFFFFF" d="M339.3,168.9h-19v-11c-7.2,8.2-13.3,12.4-19.9,12.4c-5.8,0-9.9-2.7-11.9-7.7
		c-1.2-3-2.1-7.7-2.1-14.7V69.1h19v73.8c0,4.2,0,6,0,7c0.4,2.8,1.6,3.8,4,3.8c3.6,0,6.9-3.2,10.9-8.8V69.1h19V168.9z"/>
	<polygon id="T" fill="#FFFFFF" points="267.5,168.9 247.5,168.9 247.5,54.1 226.5,54.1 226.5,35.1 289.4,35.1 289.4,54.1 
		267.5,54.1 	"/>
</g>
</svg>
