<svg version="1.1" class="social_rss_circle" xmlns="http://www.w3.org/2000/svg" xmlns:xlink="http://www.w3.org/1999/xlink" x="0px" y="0px"
	 width="200" height="200" viewBox="206 296 200 200" style="enable-background:new 206 296 200 200;" xml:space="preserve">
<path d="M306,296c-55.2,0-100,44.8-100,100s44.8,100,100,100s100-44.8,100-100S361.2,296,306,296z M267.5,448.4
	c-7.7,0-14-6.2-14-13.9c0-7.7,6.3-14,14-14c7.7,0,14,6.3,14,14C281.5,442.2,275.2,448.4,267.5,448.4z M302.6,448.5
	c0-13.2-5.1-25.5-14.4-34.8c-9.3-9.3-21.6-14.4-34.7-14.4v-20.1c38.2,0,69.3,31.1,69.3,69.3H302.6z M338.3,448.5
	c0-46.8-38-84.9-84.8-84.9v-20.1c57.9,0,105,47.1,105,105H338.3z"/>
</svg>
