<svg version="1.1" id="social_pinterest_circle" xmlns="http://www.w3.org/2000/svg" xmlns:xlink="http://www.w3.org/1999/xlink"
	 width="200" height="200" x="0px" y="0px" viewBox="-99 101 200 200" style="enable-background:new -99 101 200 200;" xml:space="preserve">
<path d="M1,101c-55.2,0-100,44.8-100,100c0,42.1,26,78.1,62.8,92.9c-0.6-7.1-1-11.4-1-13.1c0-6.3,0.8-13.3,2.2-21.1
	s3.7-17.6,6.8-29.4c3.1-11.8,4.8-18.7,5.3-20.7c-2.2-4.4-3.2-10.2-3.2-17.3c0-5.7,1.8-11,5.3-16c3.6-4.9,8.1-7.5,13.5-7.5
	c4.2,0,7.4,1.4,9.7,4.2c2.3,2.7,3.5,6.3,3.5,10.5c0,4.5-1.5,11-4.5,19.5s-4.5,14.9-4.5,19.1s1.5,7.8,4.6,10.7
	c3.1,2.8,6.8,4.2,11.1,4.2c3.7,0,7.2-0.9,10.5-2.6c3.2-1.7,5.9-4,8-7c2.1-2.9,4.1-6.2,5.7-9.7c1.7-3.6,3-7.3,3.9-11.3
	s1.6-7.7,2-11.3s0.7-7,0.7-10.2c0-11.8-3.7-21-11.2-27.5C24.7,151,15,147.7,3,147.7c-13.6,0-25,4.4-34.1,13.3
	c-9.1,8.8-13.7,20-13.7,33.6c0,3,0.4,5.9,1.3,8.7c0.9,2.8,1.8,5,2.7,6.6c1,1.6,1.9,3.1,2.7,4.7c0.8,1.4,1.3,2.5,1.3,3.1
	c0,1.9-0.5,4.4-1.5,7.5s-2.3,4.6-3.7,4.6c-0.2,0-0.7-0.1-1.7-0.3c-3.5-1-6.5-2.9-9.3-5.7c-2.7-2.8-4.8-6-6.2-9.7s-2.5-7.3-3.3-11.1
	c-0.8-3.8-1.2-7.4-1.2-10.9c0-7.4,1.3-14.3,3.8-20.8s6.1-12.2,10.5-17c4.4-4.8,9.7-9,15.6-12.6s12.2-6.2,18.9-8
	c6.7-1.8,13.6-2.6,20.7-2.6c10.8,0,20.7,2.3,30,6.8s16.8,11.1,22.6,19.8c5.8,8.7,8.7,18.4,8.7,29.3c0,6.5-0.7,12.9-2,19.2
	c-1.3,6.3-3.3,12.3-6.1,18.1s-6.2,10.9-10.2,15.3s-8.9,7.9-14.8,10.5S21.6,254,14.6,254c-4.6,0-9.3-1.1-13.8-3.2
	c-4.6-2.2-7.8-5.2-9.8-9c-0.7,2.6-1.6,6.5-2.9,11.5s-2,8.2-2.4,9.7c-0.3,1.4-1.1,3.9-2.1,7.2c-1,3.4-1.9,5.8-2.6,7.2
	s-1.9,3.6-3.2,6.4c-1.4,2.8-3,5.4-4.7,7.9c-0.9,1.3-2,2.8-3.1,4.4c9.8,3.2,20.2,4.9,31,4.9c55.2,0,100-44.8,100-100S56.2,101,1,101z
	"/>
</svg>
