<svg version="1.1" id="social_email_circle" xmlns="http://www.w3.org/2000/svg" xmlns:xlink="http://www.w3.org/1999/xlink"
     width="200" height="200" x="0px" y="0px" viewBox="-179 181 200 200" style="enable-background:new -179 181 200 200;" xml:space="preserve">
<path d="M-79,181c-55.5,0-100,44.5-100,100s44.5,100,100,100S21,336.5,21,281S-23.5,181-79,181 M-32,244.5L-80,283
    l-48-38.5H-32z M-134.5,249.5l34,27l-34,34V249.5z M-130.5,316.5L-95,281l14,11.5l0,0l0,0l0,0l0,0l15-12l35.5,35.5
    C-29.5,316.5-130.5,316.5-130.5,316.5z M-24,310.5l-35-35l35-28V310.5z"/>
</svg>
