<svg version="1.1" id="share_icon_print" xmlns="http://www.w3.org/2000/svg" xmlns:xlink="http://www.w3.org/1999/xlink" x="0px" y="0px"
   width="23px" height="23.001px" viewBox="0 0 23 23.001" enable-background="new 0 0 23 23.001" xml:space="preserve">
<g>
  <polygon points="7.174,13.559 8.106,13.559 8.106,11.959 8.106,11.708 8.887,11.708 8.887,12.489 8.887,16.336 12.156,16.336
    12.156,14.372 14.119,14.372 14.119,12.489 14.119,11.708 14.9,11.708 14.9,13.559 15.867,13.559 15.867,10.724 7.174,10.724  "/>
  <rect x="8.887" y="6.664" width="5.232" height="1.562"/>
  <rect x="15.157" y="9.054" width="1.51" height="0.768"/>
  <path d="M11.5,0C5.149,0,0,5.15,0,11.5C0,17.851,5.149,23,11.5,23c5.792,0,10.58-4.281,11.381-9.85
    c0.077-0.379,0.113-0.771,0.107-1.175C22.995,11.818,23,11.66,23,11.5C23,5.15,17.852,0,11.5,0z M17.5,10.062v4.331h-2.6v0.76
    l-1.962,1.958v0.006H8.106v-2.725H5.5v-4.331l0-1.836h2.606V5.883H14.9v2.343h2.6L17.5,10.062z"/>
</g>
</svg>