<svg version="1.1" id="social_youtube_square" xmlns="http://www.w3.org/2000/svg" xmlns:xlink="http://www.w3.org/1999/xlink"
	 width="200" height="200" x="0px" y="0px" viewBox="-99 101 200 200" style="enable-background:new -99 101 200 200;" xml:space="preserve">
<g>
	<path d="M-11.8,243.4c0,3.3,0.2,5,0,5.6c-0.7,1.8-3.6,3.6-4.8,0.2c-0.2-0.7,0-2.5,0-5.7v-23.2h-8v22.8c0,3.5-0.1,6.1,0,7.3
		c0.2,2.1,0.1,4.6,2,6c3.6,2.5,10.5-0.4,12.2-4.2l0.1,4.9h6.4v-36.6h-8V243.4z"/>
	<path d="M-0.4,179.6c1.9,0,3.5-1.7,3.5-3.9v-20.2c0-2.2-1.6-3.9-3.5-3.9c-1.9,0-3.5,1.8-3.5,3.9v20.2C-4,177.9-2.3,179.6-0.4,179.6
		z"/>
	<polygon points="-22.9,207.5 -48.5,207.5 -48.5,213.8 -40.5,213.8 -40.5,257 -32.5,257 -32.5,213.9 -22.9,213.9 	"/>
	<path d="M9,221.7v-14.3H1v49.2l6.6-0.1l0.6-3c8.3,7.8,13.7,2.4,13.7-6.9v-19.1C21.9,220.2,16.4,215.8,9,221.7z M15.9,248.1
		c0,1.5-1.6,2.8-3.5,2.8c-1.8,0-3.4-1.2-3.4-2.8v-21.6c0-1.6,1.5-2.9,3.4-2.9c1.9,0,3.5,1.3,3.5,2.9V248.1z"/>
	<path d="M40.7,244.2c0,0.2,0,0.5,0,0.8v3.3c0,1.7-1.4,3.2-3.2,3.2h-1.2c-1.7,0-3.2-1.4-3.2-3.2v-0.4v-3.6v-4.8h13.8v-5.2
		c0-3.8-0.1-7.7-0.4-9.8c-1-6.9-10.5-8-15.4-4.5c-1.5,1.1-2.6,2.6-3.3,4.6c-0.7,2-1,4.7-1,8.1v11.4c0,18.9,23,16.3,20,0H40.7z
		 M33.3,228.7c0-1.9,1.6-3.5,3.5-3.5h0.5c1.9,0,3.5,1.6,3.5,3.5l-0.1,4.5h-7.5V228.7z"/>
	<path d="M-99,101v200h200V101H-99z M15.2,146.6h7.3v29.7c0,1.6,1.3,2.9,2.9,2.9c1.6,0,2.9-1.3,2.9-2.9v-29.7h7l0.1,38.3h-8.9
		l0.1-3.1c-0.6,1.2-1.3,2.2-2.2,2.8c-0.8,0.6-1.9,0.9-3,0.9c-1.3,0-2.3-0.3-3.2-0.9c-0.9-0.6-1.5-1.4-1.9-2.4
		c-0.5-1.1-0.7-2.1-0.8-3.2c-0.1-1.1-0.2-3.3-0.2-6.6V146.6z M-6.8,147c1.6-1.3,3.6-1.9,6.1-1.9c2,0,3.7,0.4,5.3,1.2
		c1.5,0.8,2.6,1.8,3.4,3.1c0.8,1.2,1.3,2.6,1.6,3.9c0.4,1.4,0.5,3.4,0.5,6.3l-0.1,9.7c0,3.5-0.1,6.2-0.4,7.8
		c-0.2,1.7-0.8,3.2-1.7,4.7c-0.9,1.4-2,2.4-3.4,3.1c-1.4,0.7-3,1-4.9,1c-2,0-3.7-0.3-5.2-0.9c-1.3-0.6-2.4-1.4-3.2-2.6
		c-0.7-1.1-1.3-2.6-1.6-4.3c-0.3-1.6-0.5-4.2-0.5-7.5v-10.1c0-3.6,0.3-6.6,0.9-8.6C-9.4,149.9-8.4,148.2-6.8,147z M-30.1,131.6
		l5.4,18.6l5.3-18.6v0.1h9.1l-9.9,25V186h-8.4v-29.3l-10.5-25.1H-30.1z M58.5,252.6c0,9.8-8.5,17.8-18.8,17.8h-77.3
		c-10.3,0-18.8-8-18.8-17.8v-41c0-9.8,8.5-17.8,18.8-17.8h77.3c10.3,0,18.8,8,18.8,17.8V252.6z"/>
</g>
</svg>
