<?xml version="1.0" encoding="utf-8"?>
<!-- Generator: Adobe Illustrator 19.1.0, SVG Export Plug-In . SVG Version: 6.00 Build 0)  -->
<svg version="1.1" id="Layer_1" xmlns="http://www.w3.org/2000/svg" xmlns:xlink="http://www.w3.org/1999/xlink" x="0px" y="0px"
	 width="500px" height="99.8px" viewBox="0 0 500 99.8" enable-background="new 0 0 500 99.8" xml:space="preserve">
<g>
	<path fill="#55ACEE" d="M415.2,63.6c-0.1,0-0.2,0-0.3,0l0.5-0.1C415.4,63.6,415.3,63.6,415.2,63.6z"/>
	<path fill="#55ACEE" d="M72.7,87.7c0,3.3-1.2,6.2-3.6,8.6c-2.4,2.4-5.3,3.6-8.6,3.6H36.4c-10,0-18.6-3.5-25.8-10.7
		C3.6,82.1,0,73.5,0,63.5V14.8c0-3.4,1.2-6.3,3.6-8.7c2.4-2.3,5.3-3.5,8.7-3.5c3.3,0,6.2,1.2,8.5,3.6c2.4,2.4,3.6,5.2,3.6,8.6v17.6
		h34.3c3.1,0,5.8,1.1,8,3.3c2.2,2.2,3.3,4.9,3.3,7.9c0,3.1-1.1,5.7-3.3,7.9c-2.2,2.2-4.9,3.3-8,3.3H24.4v8.5c0,3.3,1.2,6.2,3.5,8.5
		c2.3,2.3,5.2,3.5,8.5,3.5h24.1c3.3,0,6.2,1.2,8.6,3.6C71.5,81.5,72.7,84.3,72.7,87.7z"/>
	<path fill="#55ACEE" d="M355.1,87.7c0,3.3-1.2,6.2-3.6,8.6c-2.4,2.4-5.3,3.6-8.6,3.6h-11c-10,0-18.6-3.5-25.8-10.7
		c-7.1-7.1-10.7-15.7-10.7-25.7V14.8c0-3.4,1.2-6.3,3.6-8.7c2.4-2.3,5.3-3.5,8.7-3.5c3.3,0,6.2,1.2,8.5,3.6c2.4,2.4,3.6,5.2,3.6,8.6
		v17.6H341c3.1,0,5.8,1.1,8,3.3c2.2,2.2,3.3,4.9,3.3,7.9c0,3.1-1.1,5.7-3.3,7.9c-2.2,2.2-4.9,3.3-8,3.3h-21.2v8.5
		c0,3.3,1.2,6.2,3.5,8.5c2.3,2.3,5.2,3.5,8.5,3.5h11c3.3,0,6.2,1.2,8.6,3.6C353.9,81.5,355.1,84.3,355.1,87.7z"/>
	<path fill="#55ACEE" d="M291.3,87.7c0,3.3-1.2,6.2-3.6,8.6c-2.4,2.4-5.3,3.6-8.6,3.6h-10.9c-10,0-18.6-3.5-25.8-10.7
		c-7.1-7.1-10.7-15.7-10.7-25.7V14.8c0-3.4,1.2-6.3,3.6-8.7c2.4-2.3,5.3-3.5,8.7-3.5c3.3,0,6.2,1.2,8.5,3.6c2.4,2.4,3.6,5.2,3.6,8.6
		v17.6h21.2c3.1,0,5.8,1.1,8,3.3c2.2,2.2,3.3,4.9,3.3,7.9c0,3.1-1.1,5.7-3.3,7.9c-2.2,2.2-4.9,3.3-8,3.3h-21.2v8.5
		c0,3.3,1.2,6.2,3.5,8.5c2.3,2.3,5.2,3.5,8.5,3.5h11c3.3,0,6.2,1.2,8.6,3.6C290.1,81.5,291.3,84.3,291.3,87.7z"/>
	<path fill="#55ACEE" d="M190.3,65.8c0,9.4-3.3,17.4-10,24c-6.7,6.6-14.7,10-24.1,10c-8.6,0-16.1-2.9-22.7-8.7
		c-6.4,5.8-14,8.7-22.5,8.7c-9.4,0-17.4-3.3-24.1-10c-6.7-6.6-10-14.7-10-24V42.1c0-3.2,1.1-5.9,3.4-8.1c2.2-2.2,4.9-3.3,8-3.3
		c3.1,0,5.8,1.1,8,3.3c2.2,2.2,3.4,4.9,3.4,8.1v23.7c0,3.1,1.1,5.8,3.3,8c2.2,2.2,4.9,3.3,8,3.3c3,0,5.7-1.1,7.9-3.3
		c2.2-2.2,3.3-4.8,3.3-8V42.2c0-3.1,1.1-5.8,3.4-8.1c2.2-2.3,5-3.4,8.2-3.4c3.1,0,5.8,1.1,8.1,3.3c2.2,2.2,3.4,4.9,3.4,8v23.7
		c0,3.1,1.1,5.8,3.3,8c2.2,2.2,4.8,3.3,7.8,3.3c3.1,0,5.8-1.1,8-3.3c2.2-2.2,3.3-4.8,3.3-8V42.1c0-3.1,1.1-5.8,3.4-8
		c2.2-2.2,4.9-3.3,8-3.3c3.1,0,5.8,1.1,8,3.3c2.2,2.2,3.4,4.9,3.4,8V65.8z"/>
	<path fill="#55ACEE" d="M223.2,12.1c0,3.3-1.2,6.2-3.6,8.6c-2.4,2.4-5.3,3.6-8.6,3.6c-3.3,0-6.2-1.2-8.6-3.6
		c-2.4-2.4-3.6-5.2-3.6-8.6c0-3.3,1.2-6.2,3.6-8.6c2.4-2.4,5.3-3.6,8.6-3.6c3.3,0,6.2,1.2,8.6,3.6C222,6,223.2,8.8,223.2,12.1z"/>
	<path fill="#55ACEE" d="M223.2,87.7c0,3.3-1.2,6.2-3.6,8.6c-2.4,2.4-5.3,3.6-8.6,3.6c-3.3,0-6.2-1.2-8.6-3.6
		c-2.4-2.4-3.6-5.2-3.6-8.6V42.9c0-3.3,1.2-6.2,3.6-8.6c2.4-2.4,5.3-3.6,8.6-3.6c3.3,0,6.2,1.2,8.6,3.6c2.4,2.4,3.6,5.2,3.6,8.6
		V87.7z"/>
	<path fill="#55ACEE" d="M500,43.7c0,3.1-1.1,5.7-3.3,8c-2.2,2.2-4.9,3.3-8,3.3H472c-3.1,0-5.7,1.1-7.9,3.3
		c-2.2,2.2-3.3,4.8-3.3,7.9v22.4c0,3.1-1.1,5.8-3.3,8c-2.2,2.2-4.9,3.3-8,3.3c-3.1,0-5.8-1.1-8-3.3c-2.2-2.2-3.3-4.9-3.3-8V66.1
		c0-9.3,3.3-17.2,9.9-23.8c6.6-6.6,14.6-9.9,23.9-9.9h16.6c3.1,0,5.8,1.1,8,3.3C498.9,38,500,40.6,500,43.7z"/>
	<path fill="#55ACEE" d="M393.2,99.8c-9.6,0-18.6-3.6-25.8-10.9c-7.1-7.3-9.9-15.2-9.9-25.5c0,0-0.7-32.7,36.2-32.7
		c28.9,0,37.7,20.3,37.7,30.3c0,8-3.6,10.8-11.9,10.8h-36.9c0,0-1.3,8.5,15.5,8.5h21.1c5.4,0,9.8,4.4,9.8,9.8c0,5.4-4.4,9.8-9.8,9.8
		H393.2z M382.9,56.3h24.3c0-8-12.1-8-12.1-8S382.9,48.3,382.9,56.3z"/>
</g>
</svg>
