<?xml version="1.0" encoding="utf-8"?>
<!-- Generator: Adobe Illustrator 19.1.0, SVG Export Plug-In . SVG Version: 6.00 Build 0)  -->
<svg version="1.1" id="Layer_1" xmlns="http://www.w3.org/2000/svg" xmlns:xlink="http://www.w3.org/1999/xlink" x="0px" y="0px"
	 width="500px" height="97.6px" viewBox="-56 259.4 500 97.6" enable-background="new -56 259.4 500 97.6" xml:space="preserve">
<path fill="#3B5998" d="M218.9,291.8c-7.5-0.8-14,1.5-19.5,8.1v-2.1l0,0v-35.6v-0.4v-2.4l-19.9,2.4v93.8h19.9V350
	c2.7,1.9,5.3,4.2,8.3,5.3c11.6,4.2,26.9,0.8,32.2-14.7c3.4-9.9,3.3-20.1,0.8-30.2C237.8,299.2,230.4,293.1,218.9,291.8z
	 M221.8,332.5c-0.9,6.2-5.8,9.4-11.6,9c-1.5-0.1-2.8-0.4-4-0.9c-4.7-2.7-6.1-7.2-6.5-10.1l0,0c-0.3-4.4-0.7-13.6,1.5-17.9
	c1.8-3.3,5-5.1,9.2-5.3c6-0.2,10.5,2.8,11.4,8.9C222.6,321.5,222.6,327.1,221.8,332.5z"/>
<path fill="#3B5998" d="M289.4,293c-6.9-1.8-13.9-1.8-20.8,0c-10.3,2.8-17.3,9.3-19.5,19.7c-1.2,5.7-1.5,11.7-1.1,17.5
	c0.7,13.3,9,22.8,21.7,25.7c0.2,0,0.4,0.1,0.5,0.1l0,0c0,0,0,0,0.1,0c0.5,0.1,1,0.2,1.5,0.3c0.2,0,0.3,0,0.5,0l0,0
	c0.6,0.1,1.4,0.2,2.1,0.3c2.5,0.3,5.7,0.5,8.3,0.1l0,0c0.1,0,0.3,0,0.4,0c13.2-0.7,23.2-9,26.1-21.8c1.6-7,1.6-14,0.1-21
	C307,303,300.3,295.9,289.4,293z M290.2,331.5c-0.1,0.4-0.1,0.8-0.2,1.2c-1.3,5.9-5.6,9-11.3,8.8c-6.1-0.3-10.3-3.9-10.9-10
	c-0.4-4.5-0.5-9-0.1-13.5c0.6-7,5-10.9,11.6-10.8c5.4,0.1,9.3,3.2,10.7,8.4C291.3,320.9,290.4,330.3,290.2,331.5z"/>
<path fill="#3B5998" d="M-9.3,292.7h-14.2v-9.4c1-8.9,15.8-7.2,15.8-7.2v-0.6v-0.1v-14.7l0,0l0,0l0,0c-0.5-0.1-29.3-7-35.1,15l0,0
	v0.1c-0.9,2.7-0.8,15.3-0.8,16.9H-56v16.8h13.1v45.7h19v-45.7h14.6l1.6-16.8H-9.3z"/>
<path fill="#3B5998" d="M36.1,300.7c-0.2-0.3-0.5-0.5-0.7-0.7l0,0l-0.1-0.1c-0.3-0.3-0.4-0.5-0.4-0.5l0,0c-4.5-4.6-6.2-5.7-9.7-6.7
	c-13.5-4-26.6,3.1-30.8,16.7c-2.6,8.3-2.6,16.9-1.1,25.4c3.2,18.3,16.9,24.4,31.4,21.4c4.5-0.9,7.8-3.7,10.8-7.6c0,0,0.3-0.3,0.6-1
	v8.1h18.6v-63H36.1V300.7L36.1,300.7z M34.4,332.4c-0.6,5.8-5.3,9.3-10.9,9.1c-5.7-0.2-9.5-3.3-10.7-8.7c-1.5-7.8,0.3-17,0.4-17.8
	c1.5-5.2,5.3-7.8,10.9-7.7c5.5,0.1,9.7,3.4,10.3,9C35,321.6,35,327.1,34.4,332.4z"/>
<path fill="#3B5998" d="M111.4,351.2c-0.9-3.2-1.8-6.3-2.8-9.3l-0.9-3.3c0,0-23.3,11.2-26.9-10.1c-0.3-3.5-0.2-7.1,0.2-10.6
	c0.9-6.5,4.9-10,11.2-10.6c2.1-0.2,4.4-0.1,6.5,0.3c2.9,0.5,5.7,1.4,8.9,2.1c1.1-3.4,2.2-6.7,3.3-10c0.2-0.5,0.3-1,0.4-1.4l0,0
	l0.5-2c-0.1-0.3-0.4-0.5-0.9-0.8l0,0c-0.5-0.4-1.4-0.8-2.9-1.3c-0.6-0.2-1.1-0.4-1.7-0.6c-0.5-0.2-0.8-0.3-0.8-0.3l0,0
	c-6.1-1.7-12.4-1.9-18.8-1.2c-13.4,1.4-22.6,9.4-25.1,22.4c-1.3,6.9-1.3,13.9,0.3,20.8c2.3,10.3,8.6,17,18.8,20
	c6.7,1.9,13.5,2,20.3,1c2.9-0.4,6.9-1.9,9.9-3l1.1-0.4L111.4,351.2L111.4,351.2z"/>
<path fill="#3B5998" d="M172.6,326.6c-0.1-4.4,0-8.7-0.6-13c-1.7-11.7-8.8-19.2-20.4-21.1c-4.4-0.7-9.1-0.6-13.6-0.2
	c-12.3,1.2-21.6,8.8-23.5,20.3c-1.2,7-1.3,14.4-0.4,21.4c1.4,10.5,6.5,17.3,15.4,20.5l0,0h0.1l0,0c4.1,1.2,23.9,6.4,41.4-2.4
	l-0.7-2.6l0,0c-0.8-3.4-1.8-6.8-2.7-10.2l-0.1-0.3c0,0-0.4,0.1-1,0.3l0,0c-0.8,0.2-1.5,0.4-2.3,0.7c-0.1,0-0.3,0.1-0.4,0.1
	c-2.6,0.7-6.4,1.7-10.4,2.2c-3.4,0.3-6.7,0.4-10.2,0.1c-5.6-0.9-9.8-3.9-9.6-10.9h3.2c10.9,0,21.8,0,32.7,0c0.3,0,0.5,0,0.8,0l0,0
	c0,0,2.3,0,2.4-0.1c0,0,0-0.6,0-0.7L172.6,326.6z M154.7,318h-21.5c0.1-4.3,0.6-8.3,4.4-10.7c4-2.6,8.5-2.7,12.6-0.4
	C154.5,309.3,154.9,313.4,154.7,318z"/>
<polygon fill="#3B5998" points="444,293.4 422.9,293.4 404.6,322.1 404.6,262.3 404.6,261.9 404.6,259.5 384.7,261.9 384.7,355.7 
	404.6,355.7 404.6,327 422.9,355.7 444,355.7 424.1,324.5 "/>
<path fill="#3B5998" d="M357.3,293c-6.9-1.9-13.9-1.8-20.8,0c-10.3,2.8-17.3,9.3-19.5,19.7c-1.2,5.7-1.5,11.7-1.1,17.5
	c0.7,13.3,9,22.8,21.7,25.7c0.2,0,0.4,0.1,0.6,0.1l0,0c0,0,0,0,0.1,0c0.5,0.1,1,0.2,1.5,0.3c0.2,0,0.3,0,0.5,0l0,0
	c0.6,0.1,1.4,0.2,2.1,0.3c2.5,0.3,5.7,0.5,8.3,0.1l0,0c0.1,0,0.3,0,0.4,0c13.2-0.7,23.2-9,26.1-21.8c1.6-7,1.6-14,0.1-21
	C374.9,303,368.2,295.9,357.3,293z M358.1,331.5c-0.1,0.4-0.1,0.8-0.2,1.2c-1.3,5.9-5.6,9-11.3,8.8c-6.1-0.3-10.3-3.9-10.9-10
	c-0.4-4.5-0.5-9-0.1-13.5c0.6-7,5-10.9,11.6-10.8c5.4,0.1,9.3,3.2,10.7,8.4C359.2,320.9,358.2,330.3,358.1,331.5z"/>
</svg>
