<svg version="1.1" id="social_youtube" xmlns="http://www.w3.org/2000/svg" xmlns:xlink="http://www.w3.org/1999/xlink" x="0px"
	 width="200" height="200" y="0px" viewBox="-99 101 200 200" style="enable-background:new -99 101 200 200;" xml:space="preserve">
<g>
	<path d="M15.5,179c0.1,1.1,0.3,2.1,0.8,3.2c0.4,1,1,1.8,1.9,2.4c0.9,0.6,1.9,0.9,3.2,0.9c1.1,0,2.2-0.3,3-0.9
		c0.9-0.6,1.6-1.6,2.2-2.8l-0.1,3.1h8.9l-0.1-38.3h-7v29.7c0,1.6-1.3,2.9-2.9,2.9c-1.6,0-2.9-1.3-2.9-2.9v-29.7h-7.2v25.8
		C15.3,175.7,15.4,177.9,15.5,179z"/>
	<path d="M-10.9,170.6c0,3.3,0.2,5.9,0.5,7.5c0.3,1.7,0.9,3.2,1.6,4.3c0.8,1.2,1.9,2,3.2,2.6c1.5,0.6,3.2,0.9,5.2,0.9
		c1.9,0,3.5-0.3,4.9-1c1.4-0.7,2.5-1.7,3.4-3.1c0.9-1.5,1.5-3,1.7-4.7c0.3-1.6,0.4-4.3,0.4-7.8l0.1-9.7c0-2.9-0.1-4.9-0.5-6.3
		c-0.3-1.3-0.8-2.7-1.6-3.9c-0.8-1.3-1.9-2.3-3.4-3.1c-1.6-0.8-3.3-1.2-5.3-1.2c-2.5,0-4.5,0.6-6.1,1.9c-1.6,1.2-2.6,2.9-3.2,4.9
		s-0.9,5-0.9,8.6V170.6z M-3.9,155.5c0-2.1,1.6-3.9,3.5-3.9c1.9,0,3.5,1.7,3.5,3.9v20.2c0,2.2-1.6,3.9-3.5,3.9
		c-1.9,0-3.6-1.7-3.5-3.9V155.5z"/>
	<polygon points="-28.6,186 -20.2,186 -20.2,156.7 -10.3,131.7 -19.4,131.7 -19.4,131.6 -24.7,150.2 -30.1,131.6 -39.1,131.6
		-28.6,156.7 	"/>
	<path d="M40.8,228.7c0-1.9-1.6-3.5-3.5-3.5h-0.5c-1.9,0-3.5,1.6-3.5,3.5h-0.1v4.5h7.5L40.8,228.7z"/>
	<path d="M12.4,223.6c-1.9,0-3.4,1.3-3.4,2.9v21.6c0,1.6,1.6,2.8,3.4,2.8c1.9,0,3.5-1.3,3.5-2.8v-21.6
		C15.9,224.9,14.3,223.6,12.4,223.6z"/>
	<path d="M39.7,193.8h-77.3c-10.3,0-18.8,8-18.8,17.8v41c0,9.8,8.5,17.8,18.8,17.8h77.3c10.3,0,18.8-8,18.8-17.8v-41
		C58.5,201.8,50,193.8,39.7,193.8z M-32.5,257h-8v-43.2h-8v-6.3h25.6v6.4h-9.6V257z M-3.9,257.1h-6.4l-0.1-4.9
		c-1.7,3.8-8.6,6.7-12.2,4.2c-1.9-1.4-1.8-3.9-2-6c-0.1-1.2,0-3.8,0-7.3v-22.8h8v23.2c0,3.2-0.2,5,0,5.7c1.2,3.4,4.1,1.6,4.8-0.2
		c0.2-0.6,0-2.3,0-5.6h-0.1v-22.9h8V257.1z M21.9,246.6c0,9.3-5.4,14.7-13.7,6.9l-0.6,3L1,256.6v-49.2h8v14.3
		c7.4-5.9,12.9-1.5,12.9,5.8V246.6z M26.8,244.1v-11.4c0-3.4,0.3-6.1,1-8.1s1.8-3.5,3.3-4.6c4.9-3.5,14.4-2.4,15.4,4.5
		c0.3,2.1,0.4,6,0.4,9.8v5.2H33.1v4.8v3.6v0.4c0,1.8,1.5,3.2,3.2,3.2h1.2c1.8,0,3.2-1.5,3.2-3.2V245c0-0.3,0-0.6,0-0.8v-0.1h6.1
		C49.8,260.4,26.8,263,26.8,244.1z"/>
</g>
</svg>
