<svg version="1.1" id="social_instagram_circle" xmlns="http://www.w3.org/2000/svg" xmlns:xlink="http://www.w3.org/1999/xlink"
     width="200" height="200" x="0px" y="0px" viewBox="-188 189 200 200" style="enable-background:new -188 189 200 200;" xml:space="preserve">
<path d="M-88,389c-55.2,0-100-44.8-100-100s44.8-100,100-100S12,233.8,12,289S-32.8,389-88,389z M-35.4,245.7
    c0-5.1-4.2-9.3-9.3-9.3h-86.7c-5.1,0-9.3,4.2-9.3,9.3v21.7h32.6c4.6-6,11.9-10,20-10s15.4,3.9,20,10h32.6V245.7z M-110,282.5
    c0,12.2,9.9,22.1,22,22.1s22.1-9.9,22.1-22.1c0-12.1-9.9-22-22.1-22C-100.2,260.5-110,270.4-110,282.5z M-35.4,271.1h-30.3
    c1.7,3.4,2.7,7.3,2.7,11.4c0,13.9-11.3,25.1-25.1,25.1c-13.9,0-25.1-11.2-25.1-25.1c0-4.1,1-8,2.7-11.4h-30.2v61.2
    c0,5.1,4.2,9.3,9.3,9.3h86.7c5.1,0,9.3-4.2,9.3-9.3L-35.4,271.1L-35.4,271.1z M-88,264.6c9.9,0,18,8.1,18,18c0,9.9-8.1,18-18,18
    s-18-8.1-18-18C-106,272.6-97.9,264.6-88,264.6z M-57.8,242.3h9.7c3.6,0,6.6,3,6.6,6.6v7c0,3.6-3,6.6-6.6,6.6h-9.7
    c-3.6,0-6.6-3-6.6-6.6v-7C-64.4,245.3-61.5,242.3-57.8,242.3z M-117.3,241.5h3.5v21.8h-3.5V241.5z M-123.4,241.5h3.5v21.8h-3.5
    V241.5z M-129.4,241.5h3.5v21.8h-3.5V241.5z M-135.5,248c0-2.6,1.5-4.8,3.5-5.9v21.2h-3.5V248z"/>
</svg>
