<svg version="1.1" class="social_twitter_circle" xmlns="http://www.w3.org/2000/svg" xmlns:xlink="http://www.w3.org/1999/xlink"
	 width="200" height="200" x="0px" y="0px" viewBox="-99 101 200 200" style="enable-background:new -99 101 200 200;" xml:space="preserve">
<path d="M1,101c-55.2,0-100,44.8-100,100S-54.2,301,1,301c50.4,0,92-37.2,99-85.7c0.7-3.3,1-6.7,0.9-10.2c0.1-1.4,0.1-2.7,0.1-4.1
	C101,145.8,56.2,101,1,101z M42.8,179.6c0,0.9,0.1,1.9,0.1,2.8c0,28.5-21.7,61.4-61.4,61.4c-12.2,0-23.5-3.6-33-9.7
	c1.7,0.2,3.4,0.3,5.1,0.3c10.1,0,19.4-3.4,26.7-9.3c-9.5-0.2-17.4-6.4-20.2-15c1.3,0.3,2.7,0.4,4.1,0.4c2,0,3.9-0.3,5.7-0.8
	c-9.9-2-17.3-10.7-17.3-21.2c0-0.1,0-0.2,0-0.3c2.9,1.6,6.3,2.6,9.8,2.7c-5.8-3.9-9.6-10.5-9.6-18c0-4,1.1-7.7,2.9-10.9
	c10.7,13.1,26.5,21.7,44.4,22.6c-0.4-1.6-0.6-3.2-0.6-4.9c0-11.9,9.7-21.6,21.6-21.6c6.2,0,11.8,2.6,15.8,6.8
	c4.9-1,9.5-2.8,13.7-5.2c-1.6,5-5,9.3-9.5,11.9c4.4-0.5,8.5-1.7,12.4-3.4C50.7,172.7,47.1,176.5,42.8,179.6z"/>
</svg>
