<svg enable-background="new 0 0 500 99.8" height="99.8" viewBox="0 0 500 99.8" width="500" xmlns="http://www.w3.org/2000/svg"><g fill="#55acee"><path d="m415.2 63.6c-.1 0-.2 0-.3 0l.5-.1c0 .1-.1.1-.2.1z"/><path d="m72.7 87.7c0 3.3-1.2 6.2-3.6 8.6s-5.3 3.6-8.6 3.6h-24.1c-10 0-18.6-3.5-25.8-10.7-7-7.1-10.6-15.7-10.6-25.7v-48.7c0-3.4 1.2-6.3 3.6-8.7 2.4-2.3 5.3-3.5 8.7-3.5 3.3 0 6.2 1.2 8.5 3.6 2.4 2.4 3.6 5.2 3.6 8.6v17.6h34.3c3.1 0 5.8 1.1 8 3.3s3.3 4.9 3.3 7.9c0 3.1-1.1 5.7-3.3 7.9s-4.9 3.3-8 3.3h-34.3v8.5c0 3.3 1.2 6.2 3.5 8.5s5.2 3.5 8.5 3.5h24.1c3.3 0 6.2 1.2 8.6 3.6 2.4 2.6 3.6 5.4 3.6 8.8z"/><path d="m355.1 87.7c0 3.3-1.2 6.2-3.6 8.6s-5.3 3.6-8.6 3.6h-11c-10 0-18.6-3.5-25.8-10.7-7.1-7.1-10.7-15.7-10.7-25.7v-48.7c0-3.4 1.2-6.3 3.6-8.7 2.4-2.3 5.3-3.5 8.7-3.5 3.3 0 6.2 1.2 8.5 3.6 2.4 2.4 3.6 5.2 3.6 8.6v17.6h21.2c3.1 0 5.8 1.1 8 3.3s3.3 4.9 3.3 7.9c0 3.1-1.1 5.7-3.3 7.9s-4.9 3.3-8 3.3h-21.2v8.5c0 3.3 1.2 6.2 3.5 8.5s5.2 3.5 8.5 3.5h11c3.3 0 6.2 1.2 8.6 3.6 2.5 2.6 3.7 5.4 3.7 8.8z"/><path d="m291.3 87.7c0 3.3-1.2 6.2-3.6 8.6s-5.3 3.6-8.6 3.6h-10.9c-10 0-18.6-3.5-25.8-10.7-7.1-7.1-10.7-15.7-10.7-25.7v-48.7c0-3.4 1.2-6.3 3.6-8.7 2.4-2.3 5.3-3.5 8.7-3.5 3.3 0 6.2 1.2 8.5 3.6 2.4 2.4 3.6 5.2 3.6 8.6v17.6h21.2c3.1 0 5.8 1.1 8 3.3s3.3 4.9 3.3 7.9c0 3.1-1.1 5.7-3.3 7.9s-4.9 3.3-8 3.3h-21.2v8.5c0 3.3 1.2 6.2 3.5 8.5s5.2 3.5 8.5 3.5h11c3.3 0 6.2 1.2 8.6 3.6 2.4 2.6 3.6 5.4 3.6 8.8z"/><path d="m190.3 65.8c0 9.4-3.3 17.4-10 24s-14.7 10-24.1 10c-8.6 0-16.1-2.9-22.7-8.7-6.4 5.8-14 8.7-22.5 8.7-9.4 0-17.4-3.3-24.1-10-6.7-6.6-10-14.7-10-24v-23.7c0-3.2 1.1-5.9 3.4-8.1 2.2-2.2 4.9-3.3 8-3.3s5.8 1.1 8 3.3 3.4 4.9 3.4 8.1v23.7c0 3.1 1.1 5.8 3.3 8s4.9 3.3 8 3.3c3 0 5.7-1.1 7.9-3.3s3.3-4.8 3.3-8v-23.6c0-3.1 1.1-5.8 3.4-8.1 2.2-2.3 5-3.4 8.2-3.4 3.1 0 5.8 1.1 8.1 3.3 2.2 2.2 3.4 4.9 3.4 8v23.7c0 3.1 1.1 5.8 3.3 8s4.8 3.3 7.8 3.3c3.1 0 5.8-1.1 8-3.3s3.3-4.8 3.3-8v-23.6c0-3.1 1.1-5.8 3.4-8 2.2-2.2 4.9-3.3 8-3.3s5.8 1.1 8 3.3 3.4 4.9 3.4 8v23.7z"/><path d="m223.2 12.1c0 3.3-1.2 6.2-3.6 8.6s-5.3 3.6-8.6 3.6-6.2-1.2-8.6-3.6-3.6-5.2-3.6-8.6c0-3.3 1.2-6.2 3.6-8.6s5.3-3.6 8.6-3.6 6.2 1.2 8.6 3.6c2.4 2.5 3.6 5.3 3.6 8.6z"/><path d="m223.2 87.7c0 3.3-1.2 6.2-3.6 8.6s-5.3 3.6-8.6 3.6-6.2-1.2-8.6-3.6-3.6-5.2-3.6-8.6v-44.8c0-3.3 1.2-6.2 3.6-8.6s5.3-3.6 8.6-3.6 6.2 1.2 8.6 3.6 3.6 5.2 3.6 8.6z"/><path d="m500 43.7c0 3.1-1.1 5.7-3.3 8-2.2 2.2-4.9 3.3-8 3.3h-16.7c-3.1 0-5.7 1.1-7.9 3.3s-3.3 4.8-3.3 7.9v22.4c0 3.1-1.1 5.8-3.3 8s-4.9 3.3-8 3.3-5.8-1.1-8-3.3-3.3-4.9-3.3-8v-22.5c0-9.3 3.3-17.2 9.9-23.8s14.6-9.9 23.9-9.9h16.6c3.1 0 5.8 1.1 8 3.3 2.3 2.3 3.4 4.9 3.4 8z"/><path d="m393.2 99.8c-9.6 0-18.6-3.6-25.8-10.9-7.1-7.3-9.9-15.2-9.9-25.5 0 0-.7-32.7 36.2-32.7 28.9 0 37.7 20.3 37.7 30.3 0 8-3.6 10.8-11.9 10.8h-36.9s-1.3 8.5 15.5 8.5h21.1c5.4 0 9.8 4.4 9.8 9.8s-4.4 9.8-9.8 9.8h-26zm-10.3-43.5h24.3c0-8-12.1-8-12.1-8s-12.2 0-12.2 8z"/></g></svg>