<svg enable-background="new -99 101 200 200" height="200" viewBox="-99 101 200 200" width="200" xmlns="http://www.w3.org/2000/svg"><path d="m1 101c-55.2 0-100 44.8-100 100s44.8 100 100 100 100-44.8 100-100-44.8-100-100-100zm57.4 73.4c-.5 11.2-8.3 26.5-23.5 45.9-15.7 20.3-28.9 30.5-39.7 30.5-6.7 0-12.4-6.2-17-18.6-3.1-11.4-6.2-22.7-9.3-34.1-3.4-12.4-7.2-18.6-11.1-18.6-.8 0-3.9 1.8-9 5.4l-5.4-7c5.7-5 11.3-10 16.8-15 7.6-6.5 13.2-10 17-10.3 8.9-.9 14.4 5.2 16.5 18.3 2.2 14.1 3.8 22.9 4.6 26.3 2.6 11.7 5.4 17.6 8.5 17.6 2.4 0 6-3.8 10.8-11.4s7.4-13.3 7.7-17.3c.7-6.6-1.9-9.8-7.7-9.8-2.8 0-5.6.6-8.5 1.8 5.7-18.4 16.5-27.4 32.5-26.8 11.9.4 17.5 8.1 16.8 23.1z"/></svg>