<?xml version="1.0" encoding="utf-8"?>
<!-- Generator: Adobe Illustrator 19.1.0, SVG Export Plug-In . SVG Version: 6.00 Build 0)  -->
<svg version="1.1" id="Layer_1" xmlns="http://www.w3.org/2000/svg" xmlns:xlink="http://www.w3.org/1999/xlink" x="0px" y="0px"
	 width="500px" height="141.4px" viewBox="0 0 500 141.4" enable-background="new 0 0 500 141.4" xml:space="preserve">
<g>
	<path fill="#1AB7EA" d="M111.8,66.5c-0.5,10.9-8.1,25.8-22.8,44.7c-15.2,19.8-28.1,29.7-38.6,29.7c-6.5,0-12-6-16.5-18.1
		c-3-11-6-22.1-9-33.1c-3.3-12-6.9-18.1-10.8-18.1c-0.8,0-3.8,1.8-8.8,5.3L0,70.2c5.5-4.9,11-9.7,16.3-14.6
		c7.4-6.4,12.9-9.7,16.6-10c8.7-0.8,14.1,5.1,16.1,17.9c2.2,13.7,3.7,22.3,4.5,25.6c2.5,11.4,5.3,17.1,8.3,17.1
		c2.3,0,5.9-3.7,10.5-11.1c4.7-7.4,7.2-13,7.5-16.9c0.7-6.4-1.8-9.6-7.5-9.6c-2.7,0-5.4,0.6-8.3,1.8c5.5-18,16-26.8,31.5-26.3
		C107,44.5,112.4,51.9,111.8,66.5z"/>
	<path fill="#1AB7EA" d="M180.8,101.8c-4.7,8.9-11.1,16.9-19.3,24.1c-11.2,9.7-22.4,14.6-33.6,14.6c-5.2,0-9.2-1.7-11.9-5
		c-2.8-3.3-4.1-7.7-3.9-13c0.2-5.5,1.9-14.1,5.1-25.6c3.3-11.5,4.9-17.7,4.9-18.6c0-4.3-1.5-6.5-4.5-6.5c-1,0-3.9,1.8-8.5,5.3
		l-5.8-6.8c5.4-4.9,10.7-9.7,16.1-14.6c7.2-6.4,12.6-9.7,16.1-10c5.5-0.5,9.6,1.1,12.2,4.9c2.6,3.8,3.6,8.6,2.9,14.6
		c-2.2,10.2-4.5,23.1-7,38.8c-0.2,7.2,2.4,10.8,7.8,10.8c2.3,0,6.5-2.5,12.6-7.4c5-4.1,9.1-8,12.3-11.6L180.8,101.8z M159,12.5
		c-0.2,4.2-2.3,8.2-6.3,12c-4.5,4.3-9.9,6.5-16.1,6.5c-9.5,0-14.1-4.2-13.8-12.5c0.2-4.3,2.7-8.5,7.7-12.5c4.9-4,10.4-6,16.5-6
		c3.5,0,6.4,1.4,8.8,4.1C158,6.9,159.1,9.7,159,12.5z"/>
	<path fill="#1AB7EA" d="M337.6,101.8c-4.7,8.9-11.1,16.9-19.3,24.1c-11.2,9.7-22.4,14.6-33.6,14.6c-10.9,0-16.2-6-15.8-18.1
		c0.2-5.4,1.2-11.8,3.1-19.3c1.9-7.5,3-13.4,3.1-17.6c0.2-6.4-1.8-9.5-5.8-9.5c-4.4,0-9.6,5.2-15.6,15.6
		c-6.4,10.9-9.8,21.4-10.3,31.6c-0.3,7.2,0.4,12.7,2.1,16.6c-11.7,0.3-19.9-1.6-24.5-5.8c-4.2-3.7-6.1-9.8-5.8-18.3
		c0.2-5.4,1-10.7,2.5-16.1c1.5-5.4,2.3-10.1,2.5-14.3c0.3-6.2-1.9-9.3-6.8-9.3c-4.2,0-8.7,4.8-13.6,14.3c-4.9,9.5-7.5,19.5-8,29.9
		c-0.3,9.4,0.3,15.9,1.8,19.6c-11.5,0.3-19.7-2.1-24.5-7.3c-4-4.3-5.8-10.9-5.5-19.8c0.2-4.3,0.9-10.4,2.3-18.2
		c1.4-7.8,2.2-13.8,2.3-18.2c0.3-3-0.4-4.5-2.3-4.5c-1,0-3.9,1.7-8.5,5.1l-6-6.8c0.8-0.7,6.1-5.5,15.8-14.6c7-6.5,11.8-9.9,14.3-10
		c4.4-0.3,7.9,1.5,10.5,5.4c2.7,3.9,4,8.5,4,13.7c0,1.7-0.2,3.3-0.5,4.8c2.5-3.8,5.4-7.2,8.8-10c7.7-6.7,16.3-10.5,25.9-11.3
		c8.2-0.7,14.1,1.3,17.6,5.8c2.8,3.7,4.2,9,4,15.8c1.2-1,2.4-2.1,3.8-3.3c3.8-4.5,7.6-8.1,11.3-10.8c6.2-4.5,12.6-7,19.3-7.5
		c8-0.7,13.8,1.2,17.3,5.8c3,3.7,4.4,8.9,4,15.8c-0.2,4.7-1.3,11.5-3.4,20.4c-2.1,8.9-3.1,14-3.1,15.4c-0.2,3.5,0.2,5.9,1,7.3
		c0.8,1.3,2.8,2,6,2c2.3,0,6.5-2.5,12.6-7.4c5-4.1,9.1-8,12.3-11.6L337.6,101.8z"/>
	<path fill="#1AB7EA" d="M431.8,101.5c-4.9,8-14.4,16-28.6,24.1c-17.7,10.2-35.7,15.3-54,15.3c-13.6,0-23.3-4.5-29.1-13.6
		c-4.2-6.2-6.2-13.6-6-22.1c0.2-13.6,6.2-26.4,18.1-38.7c13.1-13.4,28.5-20.1,46.2-20.1c16.4,0,25.1,6.7,26.1,20
		c0.7,8.5-4,17.3-14.1,26.3c-10.7,9.9-24.2,16.1-40.4,18.8c3,4.2,7.5,6.3,13.6,6.3c12,0,25.2-3.1,39.4-9.2
		c10.2-4.3,18.2-8.8,24.1-13.4L431.8,101.5z M374.8,75.3c0.2-4.5-1.7-6.7-5.5-6.7c-5,0-10.1,3.5-15.3,10.4c-5.2,6.9-7.9,13.5-8,19.9
		c-0.1,0-0.1,1.1,0,3.3c8.2-3,15.3-7.6,21.3-13.7C372.1,83,374.6,78.6,374.8,75.3z"/>
	<path fill="#1AB7EA" d="M499.9,84.7c-0.7,15.4-6.4,28.7-17.1,39.9c-10.7,11.2-24,16.8-39.9,16.8c-13.2,0-23.3-4.3-30.1-12.8
		c-5-6.3-7.8-14.3-8.3-23.8c-0.8-14.4,4.3-27.6,15.6-39.6c12-13.4,27.2-20.1,45.4-20.1c11.7,0,20.6,3.9,26.6,11.8
		C497.8,64.1,500.4,73.3,499.9,84.7z M471.6,83.8c0.2-4.5-0.5-8.7-1.9-12.5c-1.4-3.8-3.5-5.7-6.1-5.7c-8.5,0-15.6,4.6-21.1,13.8
		c-4.7,7.6-7.2,15.6-7.5,24.1c-0.2,4.2,0.6,7.9,2.3,11.1c1.8,3.7,4.4,5.5,7.8,5.5c7.5,0,14-4.4,19.3-13.3
		C468.8,99.5,471.2,91.8,471.6,83.8z"/>
</g>
</svg>
