<svg enable-background="new -99 101 200 200" height="200" viewBox="-99 101 200 200" width="200" xmlns="http://www.w3.org/2000/svg"><path d="m-99 101v200h200v-200zm157.4 73.4c-.4 11.1-8.2 26.5-23.4 45.8-15.6 20.3-28.9 30.4-39.7 30.4-6.7 0-12.3-6.2-17-18.6-3.1-11.3-6.2-22.7-9.3-34-3.4-12.3-7.1-18.6-11.1-18.6-.8 0-3.8 1.8-9 5.4l-5.4-6.9c5.7-5 11.2-9.9 16.7-14.9 7.5-6.5 13.2-9.9 17-10.3 8.9-.9 14.4 5.2 16.5 18.3 2.2 14.1 3.7 22.9 4.6 26.3 2.6 11.6 5.4 17.6 8.5 17.6 2.4 0 6-3.8 10.8-11.3s7.4-13.3 7.7-17.3c.7-6.5-1.9-9.8-7.7-9.8-2.7 0-5.6.6-8.5 1.8 5.6-18.4 16.4-27.3 32.5-26.8 11.9.2 17.5 7.9 16.8 22.9z"/></svg>