<svg version="1.1" class="social_vimeo_circle" xmlns="http://www.w3.org/2000/svg" xmlns:xlink="http://www.w3.org/1999/xlink"
	 width="200" height="200" x="0px" y="0px" viewBox="-99 101 200 200" style="enable-background:new -99 101 200 200;" xml:space="preserve">
<path d="M1,101c-55.2,0-100,44.8-100,100S-54.2,301,1,301s100-44.8,100-100S56.2,101,1,101z M58.4,174.4
	c-0.5,11.2-8.3,26.5-23.5,45.9c-15.7,20.3-28.9,30.5-39.7,30.5c-6.7,0-12.4-6.2-17-18.6c-3.1-11.4-6.2-22.7-9.3-34.1
	c-3.4-12.4-7.2-18.6-11.1-18.6c-0.8,0-3.9,1.8-9,5.4l-5.4-7c5.7-5,11.3-10,16.8-15c7.6-6.5,13.2-10,17-10.3
	c8.9-0.9,14.4,5.2,16.5,18.3c2.2,14.1,3.8,22.9,4.6,26.3c2.6,11.7,5.4,17.6,8.5,17.6c2.4,0,6-3.8,10.8-11.4
	c4.8-7.6,7.4-13.3,7.7-17.3c0.7-6.6-1.9-9.8-7.7-9.8c-2.8,0-5.6,0.6-8.5,1.8c5.7-18.4,16.5-27.4,32.5-26.8
	C53.5,151.7,59.1,159.4,58.4,174.4z"/>
</svg>
