<svg version="1.1" class="social_vimeo_square" xmlns="http://www.w3.org/2000/svg" xmlns:xlink="http://www.w3.org/1999/xlink"
	 width="200" height="200" x="0px" y="0px" viewBox="-99 101 200 200" style="enable-background:new -99 101 200 200;" xml:space="preserve">
<path d="M-99,101v200h200V101H-99z M58.4,174.4c-0.4,11.1-8.2,26.5-23.4,45.8c-15.6,20.3-28.9,30.4-39.7,30.4
	c-6.7,0-12.3-6.2-17-18.6c-3.1-11.3-6.2-22.7-9.3-34c-3.4-12.3-7.1-18.6-11.1-18.6c-0.8,0-3.8,1.8-9,5.4l-5.4-6.9
	c5.7-5,11.2-9.9,16.7-14.9c7.5-6.5,13.2-9.9,17-10.3c8.9-0.9,14.4,5.2,16.5,18.3c2.2,14.1,3.7,22.9,4.6,26.3
	c2.6,11.6,5.4,17.6,8.5,17.6c2.4,0,6-3.8,10.8-11.3c4.8-7.5,7.4-13.3,7.7-17.3c0.7-6.5-1.9-9.8-7.7-9.8c-2.7,0-5.6,0.6-8.5,1.8
	c5.6-18.4,16.4-27.3,32.5-26.8C53.5,151.7,59.1,159.4,58.4,174.4z"/>
</svg>
