<svg xmlns="http://www.w3.org/2000/svg" width="200" height="200" viewBox="0 0 200 200"><title>social_vine_icon_circle</title><path d="M100,0A100,100,0,1,0,200,100,100,100,0,0,0,100,0Zm27.68,68.59c-1.27-3.18-8.41-10.56-12.47-.32-5.86,14.77,4.08,32.26,18.49,32l11.83-.22,0,13.07a29,29,0,0,1-11.44,1c-3.6,8.27-16.34,26.13-28.64,36.74-3.07,2.65-7.63,2.76-11.66.42-29.48-18-39.66-86.53-39.66-86.53L72.83,65s5.73,47.08,26.93,68.93c.95,1,18-21.21,16.75-22.69-14.42-8.48-16.75-23.75-17.6-31s-1.06-21.63,9.76-28.42,25.59-3.76,31.48,2.2c8.92,9,7.42,26.45,4,36.13-2.79,4.41-15.05,1.61-17.31-3.66C128.67,80.29,129,71.77,127.68,68.59Z"/></svg>