<svg xmlns="http://www.w3.org/2000/svg" width="16.56" height="20" viewBox="0 0 16.56 20"><title>youtube_old</title><path d="M10.36,6.83a1.12,1.12,0,0,0,.12.46.67.67,0,0,0,.27.35.83.83,0,0,0,.46.13.75.75,0,0,0,.43-.13A1,1,0,0,0,12,7.23v.45h1.28l0-5.52h-1V6.44a.41.41,0,0,1-.41.42.42.42,0,0,1-.42-.42V2.16h-1V5.88C10.33,6.35,10.35,6.67,10.36,6.83Z"/><path d="M6.56,5.62A6.77,6.77,0,0,0,6.63,6.7a1.67,1.67,0,0,0,.23.62,1,1,0,0,0,.46.37,1.93,1.93,0,0,0,.75.13,1.61,1.61,0,0,0,.71-.14,1.17,1.17,0,0,0,.49-.45,1.8,1.8,0,0,0,.24-.67,7.54,7.54,0,0,0,.06-1.13V4a3.48,3.48,0,0,0-.07-.9,1.85,1.85,0,0,0-.23-.57,1.24,1.24,0,0,0-.49-.44A1.6,1.6,0,0,0,8,2a1.32,1.32,0,0,0-.88.27,1.28,1.28,0,0,0-.46.71,4.43,4.43,0,0,0-.13,1.23Zm1-2.18a.55.55,0,0,1,.51-.56.54.54,0,0,1,.5.56V6.35a.51.51,0,1,1-1,0Z"/><polygon points="4.01 7.84 5.22 7.84 5.22 3.62 6.64 0.01 5.33 0.01 5.33 0 4.57 2.68 3.79 0 2.49 0 4.01 3.62 4.01 7.84"/><path d="M14,14a.51.51,0,0,0-.51-.5h-.07a.51.51,0,0,0-.5.5h0v.65H14Z"/><path d="M9.91,13.26a.45.45,0,0,0-.49.41v3.12a.45.45,0,0,0,.49.4.47.47,0,0,0,.51-.4V13.67A.47.47,0,0,0,9.91,13.26Z"/><path d="M13.85,9H2.71A2.65,2.65,0,0,0,0,11.53v5.91A2.64,2.64,0,0,0,2.71,20H13.85a2.65,2.65,0,0,0,2.71-2.56V11.53A2.66,2.66,0,0,0,13.85,9ZM3.44,18.07H2.29V11.84H1.14v-.9H4.83v.92H3.44Zm4.12,0H6.64v-.7a1.39,1.39,0,0,1-1.76.6c-.27-.2-.26-.56-.29-.86s0-.55,0-1.05V12.78H5.73v3.34c0,.47,0,.72,0,.83.18.49.6.23.7,0a6.35,6.35,0,0,0,0-.81h0v-3.3H7.56Zm3.72-1.51c0,1.34-.78,2.12-2,1L9.22,18h-1V10.92H9.42V13c1.07-.85,1.86-.21,1.86.84Zm.71-.36V14.57a3.73,3.73,0,0,1,.14-1.17,1.31,1.31,0,0,1,.48-.66c.7-.51,2.07-.35,2.22.65a13.36,13.36,0,0,1,.05,1.41v.75h-2v1.27a.47.47,0,0,0,.46.46h.17a.47.47,0,0,0,.46-.46v-.6h.88C15.3,18.56,12,18.93,12,16.21Z"/></svg>