<svg version="1.1" class="social_youtube_icon" xmlns="http://www.w3.org/2000/svg" xmlns:xlink="http://www.w3.org/1999/xlink"
	 width="200" height="200" x="0px" y="0px" viewBox="-99 101 200 200" style="enable-background:new -99 101 200 200;" xml:space="preserve">
<path d="M39.8,162.6h-77.4c-10.3,0-18.8,8.1-18.8,17.8v41c0,9.8,8.5,17.8,18.8,17.8h77.4c10.3,0,18.7-8,18.7-17.8v-41
	C58.5,170.7,50.1,162.6,39.8,162.6z M24.1,203.8l-38.2,21c-0.8,0.4-1.8,0.7-2.7,0.7c-0.7,0-1.4-0.1-2.1-0.4
	c-1.5-0.6-2.5-1.8-2.5-3.1V180c0-1.3,1-2.5,2.5-3.1c1.5-0.6,3.4-0.5,4.8,0.3l38.2,21c1.2,0.7,1.9,1.7,1.9,2.8
	C26,202.2,25.3,203.2,24.1,203.8z"/>
</svg>
