<svg xmlns="http://www.w3.org/2000/svg" width="20" height="20" viewBox="0 0 20 20"><path d="M0,20V0H20V20ZM10,4.75c-1.43,0-1.6,0-2.17,0A3.73,3.73,0,0,0,6.56,5,2.68,2.68,0,0,0,5,6.56a3.73,3.73,0,0,0-.25,1.27c0,.56,0,.74,0,2.17s0,1.6,0,2.17A3.73,3.73,0,0,0,5,13.44,2.68,2.68,0,0,0,6.56,15a3.73,3.73,0,0,0,1.27.25c.56,0,.74,0,2.17,0s1.6,0,2.17,0A3.73,3.73,0,0,0,13.44,15,2.68,2.68,0,0,0,15,13.44a3.73,3.73,0,0,0,.25-1.27c0-.56,0-.74,0-2.17s0-1.6,0-2.17A3.73,3.73,0,0,0,15,6.56,2.68,2.68,0,0,0,13.44,5a3.73,3.73,0,0,0-1.27-.25C11.61,4.76,11.43,4.75,10,4.75Zm0,1c1.4,0,1.57,0,2.12,0a3,3,0,0,1,1,.18,1.76,1.76,0,0,1,1,1,3.21,3.21,0,0,1,.18,1c0,.54,0,.71,0,2.11s0,1.57,0,2.12a3,3,0,0,1-.18,1,1.76,1.76,0,0,1-1,1,3.21,3.21,0,0,1-1,.18c-.55,0-.72,0-2.12,0s-1.56,0-2.12,0a3.2,3.2,0,0,1-1-.18,1.73,1.73,0,0,1-1-1,2.78,2.78,0,0,1-.18-1c0-.55,0-.72,0-2.12s0-1.57,0-2.12a2.7,2.7,0,0,1,.18-1,1.73,1.73,0,0,1,1-1,2.69,2.69,0,0,1,1-.18c.55,0,.72,0,2.12,0m0,1.6A2.7,2.7,0,1,0,12.7,10,2.7,2.7,0,0,0,10,7.3Zm0,4.45A1.75,1.75,0,1,1,11.75,10h0A1.75,1.75,0,0,1,10,11.75ZM13.43,7.2a.63.63,0,1,1-.63-.63A.63.63,0,0,1,13.43,7.2Z" style="fill-rule:evenodd"/></svg>