<svg enable-background="new -99 101 200 200" height="200" viewBox="-99 101 200 200" width="200" xmlns="http://www.w3.org/2000/svg"><path d="m-99 101v200h200v-200zm132.9 134.9c-20.1 0-32.8-8.4-38.1-25.2l-4.5-14.3c-1.9-6.2-4.2-10.9-6.6-13.9-2.5-2.9-6.5-4.4-12.1-4.4-5.2 0-9.9 1.9-14.1 5.7-4.1 3.8-6.2 9.8-6.2 18 0 6.6 1.9 11.9 5.7 16.1 3.8 4.1 8.3 6.2 13.6 6.2 6.2 0 11.7-2.3 16.3-6.9l4.4 12.4c-5.2 4.3-12.3 6.4-21.2 6.4s-16.5-3.1-22.9-9.2-9.6-14.2-9.6-24.4c0-10.9 3.4-19.6 10.1-26.2s14.5-9.9 23.4-9.9c9.6 0 16.6 1.9 21 5.7 4.5 3.8 8.2 10.4 11.1 20l5 14.3c3.9 12.2 12.2 18.3 24.7 18.3 10.2 0 15.4-2.7 15.4-7.9 0-4.2-3.3-7.2-9.9-8.9l-9.9-1.9c-10.9-2.6-16.3-8.9-16.3-18.8 0-13.9 8.4-20.8 25.2-20.8 15.4 0 23.8 6.1 24.7 18.3l-14.3 1.5c-.4-5.6-4.1-8.4-11.4-8.4-6.6 0-9.9 2.5-9.9 7.4 0 4.3 2.6 7.1 7.9 8.4l9.3 1.9c12.6 3 18.8 9.9 18.8 20.8 0 13.1-9.8 19.7-29.6 19.7z"/></svg>