<svg enable-background="new -299 297 200 200" height="200" viewBox="-299 297 200 200" width="200" xmlns="http://www.w3.org/2000/svg"><path d="m-299 297v200h200v-200zm71.4 150.2h-22.6v-67.7h22.6zm-2.1-80.3c-2.3 2.2-5.4 3.3-9.3 3.3h-.1c-3.7 0-6.7-1.1-9-3.3s-3.4-5-3.4-8.3c0-3.4 1.2-6.2 3.5-8.4s5.4-3.3 9.2-3.3 6.8 1.1 9.1 3.3 3.4 5 3.5 8.4c0 3.2-1.1 6-3.5 8.3zm83.2 41.4v38.8h-22.5v-36.2c0-4.8-.9-8.5-2.8-11.2s-4.7-4.1-8.6-4.1c-2.9 0-5.3.8-7.2 2.4s-3.4 3.5-4.3 5.8c-.5 1.4-.8 3.2-.8 5.5v37.8h-22.5c.1-18.2.1-32.9.1-44.2s0-18-.1-20.2l-.1-3.3h22.5v9.6c.9-1.4 1.8-2.6 2.7-3.6 1-1.1 2.2-2.3 3.9-3.6 1.6-1.3 3.6-2.3 5.9-3s5-1.1 7.8-1.1c7.8 0 14.1 2.6 18.8 7.8 4.8 5.3 7.2 12.9 7.2 22.8z"/></svg>