<svg enable-background="new -99 101 200 200" height="200" viewBox="-99 101 200 200" width="200" xmlns="http://www.w3.org/2000/svg"><path d="m-99 101v200h64.3l-.9-1c-1-10.7-1.5-17.1-1.5-19.2 0-6.3.8-13.3 2.2-21.1s3.7-17.6 6.8-29.4 4.8-18.7 5.3-20.7c-2.2-4.4-3.2-10.2-3.2-17.3 0-5.7 1.8-11 5.3-16 3.6-4.9 8.1-7.5 13.5-7.5 4.2 0 7.4 1.4 9.7 4.2 2.3 2.7 3.5 6.3 3.5 10.5 0 4.5-1.5 11-4.5 19.5s-4.5 14.9-4.5 19.1 1.5 7.8 4.6 10.7c3.1 2.8 6.8 4.2 11.1 4.2 3.7 0 7.2-.9 10.5-2.6 3.2-1.7 5.9-4 8-7 2.1-2.9 4.1-6.2 5.7-9.7 1.7-3.6 3-7.3 3.9-11.3s1.6-7.7 2-11.3.7-7 .7-10.2c0-11.8-3.7-21-11.2-27.5-7.6-6.4-17.3-9.7-29.3-9.7-13.6 0-25 4.4-34.1 13.3-9.1 8.8-13.7 20-13.7 33.6 0 3 .4 5.9 1.3 8.7s1.8 5 2.7 6.6c1 1.6 1.9 3.1 2.7 4.7.8 1.4 1.3 2.5 1.3 3.1 0 1.9-.5 4.4-1.5 7.5s-2.3 4.6-3.7 4.6c-.2 0-.7-.1-1.7-.3-3.5-1-6.5-2.9-9.3-5.7-2.7-2.8-4.8-6-6.2-9.7s-2.5-7.3-3.3-11.1-1.2-7.4-1.2-10.9c0-7.4 1.3-14.3 3.8-20.8s6.1-12.2 10.5-17 9.7-9 15.6-12.6 12.2-6.2 18.9-8 13.6-2.6 20.7-2.6c10.8 0 20.7 2.3 30 6.8s16.8 11.1 22.6 19.8 8.7 18.4 8.7 29.3c0 6.5-.7 12.9-2 19.2s-3.3 12.3-6.1 18.1-6.2 10.9-10.2 15.3-8.9 7.9-14.8 10.5-12.4 3.9-19.4 3.9c-4.6 0-9.3-1.1-13.8-3.2-4.6-2.2-7.8-5.2-9.8-9-.7 2.6-1.6 6.5-2.9 11.5s-2 8.2-2.4 9.7c-.3 1.4-1.1 3.9-2.1 7.2-1 3.4-1.9 5.8-2.6 7.2s-1.9 3.6-3.2 6.4c-1.4 2.8-3 5.4-4.7 7.9s-3.8 5.4-6.4 8.8l-1.4.5h135.7v-200z"/></svg>