<svg enable-background="new 0 0 500 141.8" height="141.8" viewBox="0 0 500 141.8" width="500" xmlns="http://www.w3.org/2000/svg"><path d="m25.7.5c-10.2 4.3-21.4 16.4-25 31.6-4.5 19.2 14.2 27.4 15.8 24.7 1.8-3.1-3.4-4.2-4.4-14.2-1.4-12.9 4.6-27.3 12.1-33.6 1.4-1.2 1.3.5 1.3 3.5 0 5.4-.3 54-.3 64.1 0 13.7-.6 18-1.6 22.3s-2.7 7.3-1.4 8.4c1.4 1.2 7.4-1.8 10.9-6.6 4.2-5.8 5.6-12.8 5.9-20.3.3-9.1.3-23.6.3-31.9 0-7.6.1-29.8-.1-43.1-.1-3.3-9.2-6.7-13.5-4.9zm472.1 72c-1.5 0-2.2 1.5-2.7 4.1-1.9 9-4 11-6.6 11-2.9 0-5.6-4.4-6.3-13.3-.5-7-.5-19.8.2-32.6.1-2.6-.6-5.2-7.6-7.8-3-1.1-7.4-2.7-9.6 2.6-6.2 15-8.6 26.8-9.2 31.7l-.4-.3c-.4-3.9-1.2-10.9-1.3-25.6 0-2.9-.6-5.3-3.8-7.3-2-1.3-8.3-3.6-10.6-.9-2 2.2-4.2 8.3-6.6 15.4-1.9 5.8-3.2 9.7-3.2 9.7s0-15.7 0-21.6c0-2.2-1.5-3-2-3.1-2.1-.6-6.2-1.6-7.9-1.6-2.2 0-2.7 1.2-2.7 3 0 .2-.4 20.6-.4 34.9v2c-1.2 6.6-5 15.5-9.2 15.5s-6.2-3.7-6.2-20.7c0-9.9.3-14.2.4-21.4.1-4.1.3-7.3.2-8 0-2.2-3.8-3.3-5.6-3.7s-3.3-.6-4.5-.5c-1.7.1-2.9 1.2-2.9 2.8v2.4c-2.2-3.5-5.8-5.9-8.1-6.6-6.4-1.9-13-.2-18 6.8-4 5.6-6.4 11.9-7.3 21-.7 6.6-.5 13.4.8 19-1.5 6.4-4.3 9.1-7.3 9.1-4.4 0-7.5-7.2-7.2-19.5.2-8.1 1.9-13.8 3.6-22.1.7-3.5.1-5.3-1.4-7.1-1.4-1.6-4.4-2.5-8.8-1.4-3.1.7-7.5 1.5-11.5 2.1 0 0 .2-1 .4-2.7 1-9-8.7-8.3-11.8-5.4-1.9 1.7-3.2 3.8-3.6 7.4-.8 5.8 3.9 8.5 3.9 8.5-1.5 7.1-5.3 16.3-9.2 23-2.1 3.6-3.7 6.2-5.8 9v-3.1c0-14.9.2-26.6.3-30.8.1-4.1.2-7.2.2-8 0-1.6-1-2.2-2.9-3-1.7-.7-3.8-1.2-5.9-1.3-2.7-.2-4.3 1.2-4.3 2.9v2.3c-2.2-3.5-5.8-5.9-8.1-6.6-6.4-1.9-13-.2-18 6.8-4 5.6-6.6 13.4-7.3 20.9-.7 7-.6 12.9.4 17.9-1 5-3.9 10.2-7.2 10.2-4.2 0-6.6-3.7-6.6-20.7 0-9.9.3-14.2.4-21.4.1-4.1.3-7.3.2-8 0-2.2-3.9-3.3-5.6-3.7-1.9-.4-3.5-.6-4.7-.5-1.6.1-2.8 1.6-2.8 2.7v2.5c-2.2-3.5-5.8-5.9-8.1-6.6-6.4-1.9-13-.2-18 6.8-3.3 4.6-6 9.6-7.3 20.8-.4 3.2-.6 6.3-.5 9.1-1.3 8-7.1 17.3-11.9 17.3-2.8 0-5.4-5.4-5.4-16.9 0-15.3.9-37 1.1-39.1l7.2-.1c3 0 5.7 0 9.7-.2 2-.1 3.9-7.3 1.9-8.2-.9-.4-7.5-.7-10.2-.8-2.2 0-8.3-.5-8.3-.5s.6-14.4.7-16l-2.5-2.3c-2.3-1-4.3-1.4-6.8-1.9-3.4-.7-4.9 0-5.2 2.8-.5 4.3-.7 16.9-.7 16.9-2.5 0-10.9-.5-13.4-.5-2.3 0-4.8 9.9-1.6 10 3.6.1 10 .3 14.2.4 0 0-.2 22.1-.2 28.9v2.1c-2.3 12.1-10.5 18.6-10.5 18.6 1.8-8-1.8-14-8.3-19.1-2.4-1.9-7.1-5.4-12.3-9.3 0 0 3-3 5.7-9 1.9-4.3 2-9.2-2.7-10.2-7.8-1.8-14.1 3.9-16.1 10-1.5 4.7-.7 8.2 2.2 11.8l.7.8c-1.8 3.4-4.2 7.9-6.2 11.4-5.6 9.8-9.9 17.5-13.1 17.5-2.6 0-2.5-7.8-2.5-15.2 0-6.3.5-15.9.8-25.7.1-3.3-1.5-5.1-4.2-6.8-1.6-1-5.2-3-7.3-3-3.1 0-11.9.4-20.3 24.7-1.1 3.1-3.2 8.6-3.2 8.6l.2-29.2-1.2-1.8c-1.4-.8-5.2-2.3-8.5-2.3-1.6 0-2.4.7-2.4 2.2l-.3 45.6c0 3.5.1 7.5.4 9.3s.9 3.2 1.6 4.1 1.5 1.5 2.8 1.8c1.2.3 7.9 1.1 8.2-1.4.4-3 .4-6.3 3.9-18.6 5.4-19.1 12.5-28.5 15.8-31.8l1.2.3c-.1 4.2-.6 14.7-1 23.6-.9 23.3 3.4 27.7 9.6 27.7 4.7 0 11.4-4.7 18.6-16.6 4.5-7.4 8.8-14.7 11.9-20 2.2 2 4.6 4.2 7 6.5 5.6 5.4 7.5 10.5 6.3 15.3-.9 3.7-4.5 7.5-10.8 3.8-1.8-1.1-2.6-1.9-4.5-3.1l-3.4-.2c-2.4 1.8-3.7 4-4.5 6.9-.7 2.7 2 4.2 4.8 5.4 2.4 1.1 7.7 2.1 11 2.2 13 .4 23.5-6.3 30.7-23.6 1.3 15 6.9 23.5 16.5 23.5 6.4 0 12.9-8.3 15.7-16.5.8 3.3 2 6.2 3.5 8.7 7.4 11.8 21.8 9.2 29-.7 2.2-3.1 2.6-4.2 2.6-4.2 1.1 9.4 8.6 12.7 13 12.7 4.9 0 9.9-2.3 13.4-10.2l1.4 2.5c7.4 11.8 21.8 9.2 29-.7l.9-1.3.2 6.2s-4.1 3.8-6.6 6.1c-11.2 10.2-19.6 18-20.3 27-.8 11.5 8.5 15.8 15.6 16.3 7.5.6 13.9-3.5 17.9-9.3 3.4-5.1 5.7-16.1 5.6-26.9-.1-4.3-.2-9.9-.3-15.8 3.9-4.6 8.3-10.3 12.4-17 4.4-7.3 9.2-17.2 11.6-24.8 0 0 4.1 0 8.5-.3 1.4-.1 1.8.2 1.6 1.2-.3 1.2-5.6 21.5-.8 34.9 3.3 9 10.7 12 15.1 12 5.1 0 10-3.9 12.7-9.6l1 1.8c7.4 11.8 21.7 9.2 29-.7 1.6-2.2 2.6-4.2 2.6-4.2 1.5 9.7 9.1 12.8 13.5 12.8 4.5 0 8.8-1.9 12.3-10.1.2 3.6.4 6.6.7 7.5l2.4 1.6c4.1 1.5 8.4.8 9.9.5 1.1-.2 1.9-1.1 2-3.3.3-5.9.1-15.8 1.9-23.1 3-12.3 5.8-17.1 7.1-19.5.7-1.3 1.6-1.5 1.6-.1.1 2.8.2 11.2 1.4 22.4.8 8.2 2 13.1 2.9 14.6 2.5 4.4 5.6 4.6 8.1 4.6 1.6 0 4.9-.4 4.6-3.3-.2-1.4.1-9.8 3.1-22 1.9-7.9 5.1-15.1 6.3-17.7l.6-.1c-.3 5.5-.8 23.3 1.4 33.1 3 13.3 11.7 14.7 14.8 14.7 6.5 0 11.8-4.9 13.6-17.9.4-3.1-.2-5.5-2.1-5.5zm-272-8c-.4 6.9-1.7 12.6-3.9 16.8-3.9 7.6-11.6 10-15-1-2.4-7.9-1.6-18.6-.6-24.4 1.5-8.6 5.3-14.7 11.2-14.1 6.2.6 9.1 8.4 8.3 22.7zm59.4.1c-.3 6.5-2 13-3.9 16.7-3.8 7.6-11.7 10-15-1-2.3-7.5-1.7-17.2-.6-23.3 1.4-7.9 4.9-15.3 11.2-15.3 6.1.1 9.1 6.8 8.3 22.9zm1.5 44.3c-.1 11.8-2 22.2-6 25.2-5.7 4.3-13.3 1.1-11.7-7.6 1.4-7.7 8-15.5 17.7-25 0 .1.1 2.3 0 7.4zm102.5-44.2c-.3 7.1-1.9 12.7-3.9 16.6-3.8 7.6-11.7 10-15-1-1.8-6-1.9-15.9-.6-24.2 1.3-8.5 5.1-14.9 11.2-14.3s8.9 8.4 8.3 22.9z" fill="#3f729b"/></svg>