<svg height="20" viewBox="0 0 16.27 20" width="16.27" xmlns="http://www.w3.org/2000/svg"><path d="m9.17 1.5a4.43 4.43 0 0 1 2.94-1.5 4.37 4.37 0 0 1 -1 3.2 3.68 3.68 0 0 1 -3 1.41 4.29 4.29 0 0 1 1.06-3.11zm5.73 16c-.83 1.23-1.7 2.5-3.06 2.5s-1.77-.8-3.29-.8-2 .77-3.3.82-2.32-1.33-3.15-2.55c-1.71-2.47-3.02-7.02-1.27-10.08a4.91 4.91 0 0 1 4.17-2.51c1.29 0 2.51.86 3.29.86s2.28-1.07 3.83-.91a4.67 4.67 0 0 1 3.66 2 4.53 4.53 0 0 0 -2.16 3.8 4.45 4.45 0 0 0 2.67 4.05 10.38 10.38 0 0 1 -1.39 2.84z"/></svg>