<svg xmlns="http://www.w3.org/2000/svg" width="20" height="16.26" viewBox="0 0 20 16.26"><title>twitter</title><path d="M20,2a8.31,8.31,0,0,1-2.06,2.12,3.8,3.8,0,0,1,0,.53,11.26,11.26,0,0,1-.48,3.3A12.15,12.15,0,0,1,16,11.06a12.73,12.73,0,0,1-2.35,2.67,10.74,10.74,0,0,1-3.28,1.85,12.29,12.29,0,0,1-4.1.68A11.29,11.29,0,0,1,0,14.41a7.63,7.63,0,0,0,1,.06,8,8,0,0,0,5.09-1.75A4,4,0,0,1,3.7,11.9a4.06,4.06,0,0,1-1.45-2,7.42,7.42,0,0,0,.76,0A5.07,5.07,0,0,0,4.1,9.8,4,4,0,0,1,1.75,8.39,3.9,3.9,0,0,1,.82,5.78V5.72a3.83,3.83,0,0,0,1.85.51A4.2,4.2,0,0,1,1.33,4.77,3.92,3.92,0,0,1,.84,2.82,4.23,4.23,0,0,1,1.39.74a11.89,11.89,0,0,0,3.74,3A11.19,11.19,0,0,0,9.84,5a3.78,3.78,0,0,1-.1-.93,4,4,0,0,1,1.2-2.9,4.11,4.11,0,0,1,5.9.1,8.63,8.63,0,0,0,2.61-1,4,4,0,0,1-1.81,2.26A7.76,7.76,0,0,0,20,2Z"/></svg>