<svg enable-background="new -99 101 200 200" height="200" viewBox="-99 101 200 200" width="200" xmlns="http://www.w3.org/2000/svg"><path d="m1 101c-55.2 0-100 44.8-100 100s44.8 100 100 100c50.4 0 92-37.2 99-85.7.7-3.3 1-6.7.9-10.2.1-1.4.1-2.7.1-4.1 0-55.2-44.8-100-100-100zm41.8 78.6c0 .9.1 1.9.1 2.8 0 28.5-21.7 61.4-61.4 61.4-12.2 0-23.5-3.6-33-9.7 1.7.2 3.4.3 5.1.3 10.1 0 19.4-3.4 26.7-9.3-9.5-.2-17.4-6.4-20.2-15 1.3.3 2.7.4 4.1.4 2 0 3.9-.3 5.7-.8-9.9-2-17.3-10.7-17.3-21.2 0-.1 0-.2 0-.3 2.9 1.6 6.3 2.6 9.8 2.7-5.8-3.9-9.6-10.5-9.6-18 0-4 1.1-7.7 2.9-10.9 10.7 13.1 26.5 21.7 44.4 22.6-.4-1.6-.6-3.2-.6-4.9 0-11.9 9.7-21.6 21.6-21.6 6.2 0 11.8 2.6 15.8 6.8 4.9-1 9.5-2.8 13.7-5.2-1.6 5-5 9.3-9.5 11.9 4.4-.5 8.5-1.7 12.4-3.4-2.8 4.5-6.4 8.3-10.7 11.4z"/></svg>