<svg height="200" viewBox="0 0 200 200" width="200" xmlns="http://www.w3.org/2000/svg"><path d="m0 0v200h200v-200zm64.45 121.59a3.68 3.68 0 0 1 -3.13-2.11 13.36 13.36 0 0 1 -1-4.4c-.59-5.72.13-14.32 1.84-17.05a3.68 3.68 0 0 1 3.15-1.85c.86 0 1.61.29 18.55 7.27l4.94 2a4.53 4.53 0 0 1 2.77 4.63 4.25 4.25 0 0 1 -3 4.1l-7 2.25c-15.76 5.07-16.28 5.21-17.12 5.16zm35.82 10.61c0 16.56-.07 17.11-.35 17.9a3.7 3.7 0 0 1 -2.92 2.33c-4.21.72-17.41-4.13-20.16-7.41a4 4 0 0 1 -1-2.15 3.26 3.26 0 0 1 .19-1.52c.3-.83.79-1.47 12.61-15.42 0 0 3.46-4.1 3.46-4.1a4.56 4.56 0 0 1 5.25-1.18 4.26 4.26 0 0 1 3 4.16c-.08.08-.08 7.39-.08 7.39zm-2.84-34.63c-.85.28-3.46 1.08-6.66-4.11 0 0-21.65-34.09-22.15-35.09a3.81 3.81 0 0 1 1.11-3.6c3.27-3.34 20.71-8.23 25.27-7.1a3.76 3.76 0 0 1 2.86 2.65c.25 1.46 2.38 33.06 2.69 40.15.32 6.04-2.27 6.82-3.12 7.1zm11 1.8c0-.1 4.39-6 4.39-6 9.58-13.11 10.08-13.79 10.78-14.24a3.72 3.72 0 0 1 3.81-.15c3.84 1.85 11.54 13.29 12 17.68a.78.78 0 0 1 0 .15 3.68 3.68 0 0 1 -1.54 3.44c-.71.43-1.4.66-19.3 5a54.76 54.76 0 0 0 -5.33 1.49l.1-.15a4.52 4.52 0 0 1 -4.91-2.14 4.24 4.24 0 0 1 -.02-5.08zm31.57 28.1c-.6 4.24-9.27 15.29-13.27 16.87a3.62 3.62 0 0 1 -3.74-.39c-.67-.53-1.39-1.6-10.74-16.79l-2.78-4.52a4.53 4.53 0 0 1 .47-5.38 4.28 4.28 0 0 1 4.87-1.54c.08 0 7 2.33 7 2.33 15.75 5.16 16.26 5.36 16.93 5.86a3.7 3.7 0 0 1 1.26 3.56z"/></svg>