<svg enable-background="new 0 0 500 144.6" height="144.6" viewBox="0 0 500 144.6" width="500" xmlns="http://www.w3.org/2000/svg"><g fill="#231f20"><path clip-rule="evenodd" d="m124.3 106.1c-3.4 7.5-5 10.9-9.4 17.5-6.1 9.3-14.7 20.9-25.4 21-9.5.1-11.9-6.2-24.8-6.1s-15.5 6.2-25 6.1c-10.6-.1-18.7-10.6-24.8-19.8-17.1-26-18.9-56.5-8.4-72.7 7.5-11.5 19.3-18.2 30.4-18.2 11.3 0 18.4 6.2 27.7 6.2 9.1 0 14.6-6.2 27.6-6.2 9.9 0 20.3 5.4 27.8 14.7-24.4 13.3-20.4 48.2 4.3 57.5z" fill-rule="evenodd"/><path clip-rule="evenodd" d="m82.4 23.5c4.7-6.1 8.3-14.7 7-23.5-7.8.5-16.8 5.5-22.1 11.9-4.8 5.8-8.8 14.5-7.2 22.9 8.4.2 17.2-4.8 22.3-11.3z" fill-rule="evenodd"/><path d="m167.6 64.8c0 5.3-4 9.5-10.3 9.5-6 0-10-4.3-9.9-9.5-.1-5.5 3.9-9.7 10-9.7 6.2 0 10.1 4.2 10.2 9.7zm-19.7 78.4v-61.3h19.1v61.3z"/><path d="m199.2 74.7h-22.7v-16h65v16.1h-23.1v68.5h-19.2z"/><path d="m302.1 123.5c0 8 .3 14.6.5 19.7h-16.6l-.9-8.7h-.4c-2.4 3.8-8.2 10-19.2 10-12.4 0-21.6-7.8-21.6-26.7v-36h19.2v33c0 8.9 2.9 14.3 9.5 14.3 5.3 0 8.3-3.6 9.5-6.6.5-1.1.6-2.6.6-4.1v-36.5h19.2v41.6z"/><path d="m317.4 101.4c0-7.7-.3-14.2-.5-19.6h16.6l.9 8.4h.4c2.5-3.9 8.8-9.8 18.9-9.8 12.5 0 22 8.3 22 26.3v36.4h-19.1v-34c0-7.9-2.8-13.3-9.7-13.3-5.3 0-8.4 3.6-9.7 7.2-.5 1.3-.8 3-.8 4.8v35.4h-19.1v-41.8z"/><path d="m405.5 118.6c.6 7.9 8.4 11.7 17.3 11.7 6.5 0 11.8-.9 16.9-2.5l2.5 12.9c-6.3 2.5-13.9 3.9-22.2 3.9-20.8 0-32.7-12.2-32.7-31.4 0-15.6 9.7-32.7 31-32.7 19.8 0 27.3 15.4 27.3 30.6 0 3.3-.4 6.1-.6 7.5zm22.5-13c0-4.6-2-12.4-10.8-12.4-8 0-11.3 7.3-11.8 12.4z"/><path d="m457 126.5c3.5 2.1 10.8 4.6 16.4 4.6 5.8 0 8.2-2 8.2-5.1s-1.9-4.6-9-7c-12.7-4.3-17.6-11.2-17.4-18.3 0-11.5 9.8-20.2 25-20.2 7.1 0 13.5 1.6 17.3 3.5l-3.5 13.2c-2.8-1.5-8-3.5-13.3-3.5-4.6 0-7.3 1.9-7.3 5 0 2.9 2.4 4.4 9.9 7 11.7 4 16.6 9.9 16.7 18.9 0 11.4-9 19.9-26.6 19.9-8 0-15.2-1.9-19.8-4.4z"/></g></svg>