<svg xmlns="http://www.w3.org/2000/svg" width="20.94" height="20" viewBox="0 0 20.94 20"><path d="M4.77,6.5V20H.26V6.5ZM5,2.33A2.14,2.14,0,0,1,4.35,4a2.58,2.58,0,0,1-1.86.66h0A2.47,2.47,0,0,1,.68,4,2.2,2.2,0,0,1,0,2.33,2.23,2.23,0,0,1,.7.66,2.54,2.54,0,0,1,2.53,0,2.51,2.51,0,0,1,4.35.66,2.29,2.29,0,0,1,5,2.33Zm15.9,9.93V20H16.45V12.78a3.79,3.79,0,0,0-.56-2.23,1.91,1.91,0,0,0-1.71-.82,2.16,2.16,0,0,0-1.44.48,2.89,2.89,0,0,0-.86,1.16,3.22,3.22,0,0,0-.16,1.09V20H7.24c0-3.63,0-6.56,0-8.81s0-3.59,0-4l0-.66H11.7V8.45h0a5,5,0,0,1,.56-.75A5.69,5.69,0,0,1,13,7a3.45,3.45,0,0,1,1.18-.6,5.37,5.37,0,0,1,1.55-.22A4.81,4.81,0,0,1,19.5,7.72a6.51,6.51,0,0,1,1.44,4.54Z"/></svg>
