<svg height="30" viewBox="0 0 30 30" width="30" xmlns="http://www.w3.org/2000/svg"><path d="m15 0a15 15 0 1 0 14.85 17.14 6.46 6.46 0 0 0 .15-1.53c0-.21 0-.41 0-.61a15 15 0 0 0 -15-15zm4.49 6.13a2.62 2.62 0 1 1 -2.62 2.62 2.62 2.62 0 0 1 2.62-2.62zm-5.49.68a1.93 1.93 0 1 1 -1.93 1.93 1.93 1.93 0 0 1 1.93-1.93zm-4.45.69a1.59 1.59 0 1 1 -1.55 1.59 1.59 1.59 0 0 1 1.55-1.59zm14.06 16.33h-8.22v-3.44h-4.1v-2h-4.13v-4.6a2.39 2.39 0 0 1 2.39-2.27 2.15 2.15 0 0 1 2.25 1.63 3.18 3.18 0 0 1 2.33-.92 3.33 3.33 0 0 1 2.62 1.66 4.33 4.33 0 0 1 3-1 3.93 3.93 0 0 1 3.81 3.63z"/></svg>