<svg xmlns="http://www.w3.org/2000/svg" width="17.14" height="20" viewBox="0 0 17.14 20"><path d="M2,17.66C-2.15,14.08.52,6.09,6.87,7.1v.74C1.51,7.59-.85,14,2,17.66ZM13.57,3.81a4.7,4.7,0,0,0,2.79,1v.73A4.26,4.26,0,0,1,13.57,3.81ZM11.85,0a4.54,4.54,0,0,0,.07.82H9.39V13.43A6.05,6.05,0,0,1,9.21,15a2.71,2.71,0,0,1-4.76.42,2.76,2.76,0,0,0,4-1.24,6.05,6.05,0,0,0,.18-1.55V0Z" style="fill:#00f7ef;fill-rule:evenodd"/><path d="M12.62.82h0a4.66,4.66,0,0,0,4.51,4.78c0,3.93,0,0,0,3.26a7.71,7.71,0,0,1-4.53-1.6v6.35c0,2.88-1.56,5.7-4.56,6.27a6.6,6.6,0,0,1-2.86-.11C-2.13,17.6.3,6.75,7.64,7.92c0,3.5,0,0,0,3.5-3-.45-4.05,2.07-3.24,3.88A2.69,2.69,0,0,0,9.21,15a6.05,6.05,0,0,0,.18-1.55V.82Z" style="fill-rule:evenodd"/><path d="M6.87,7.84a5.16,5.16,0,0,1,.77.08c0,3.5,0,0,0,3.5-3-.45-4.05,2.07-3.24,3.88a1,1,0,0,1,0,.1,2.14,2.14,0,0,1-.82-.92c-.8-1.8.21-4.33,3.24-3.88Zm9.49-2.32c.24,0,.5.07.77.09,0,3.93,0,0,0,3.26a7.71,7.71,0,0,1-4.53-1.6v6.35c0,2.88-1.56,5.7-4.56,6.27a6.6,6.6,0,0,1-2.86-.11A6.11,6.11,0,0,1,2,17.66,6.57,6.57,0,0,0,4.41,19a6.47,6.47,0,0,0,2.87.1c3-.57,4.6-3.39,4.56-6.26V6.45a7.75,7.75,0,0,0,4.53,1.61C16.37,5,16.36,8.2,16.36,5.52ZM12.62.82h0a5.55,5.55,0,0,0,1,3,4.83,4.83,0,0,1-1.65-3Z" style="fill:#ff004f;fill-rule:evenodd"/></svg>