<svg enable-background="new -99 101 200 200" height="200" viewBox="-99 101 200 200" width="200" xmlns="http://www.w3.org/2000/svg"><path d="m-11.8 243.4c0 3.3.2 5 0 5.6-.7 1.8-3.6 3.6-4.8.2-.2-.7 0-2.5 0-5.7v-23.2h-8v22.8c0 3.5-.1 6.1 0 7.3.2 2.1.1 4.6 2 6 3.6 2.5 10.5-.4 12.2-4.2l.1 4.9h6.4v-36.6h-8v22.9z"/><path d="m-.4 179.6c1.9 0 3.5-1.7 3.5-3.9v-20.2c0-2.2-1.6-3.9-3.5-3.9s-3.5 1.8-3.5 3.9v20.2c-.1 2.2 1.6 3.9 3.5 3.9z"/><path d="m-22.9 207.5h-25.6v6.3h8v43.2h8v-43.1h9.6z"/><path d="m9 221.7v-14.3h-8v49.2l6.6-.1.6-3c8.3 7.8 13.7 2.4 13.7-6.9v-19.1c0-7.3-5.5-11.7-12.9-5.8zm6.9 26.4c0 1.5-1.6 2.8-3.5 2.8-1.8 0-3.4-1.2-3.4-2.8v-21.6c0-1.6 1.5-2.9 3.4-2.9s3.5 1.3 3.5 2.9z"/><path d="m40.7 244.2v.8 3.3c0 1.7-1.4 3.2-3.2 3.2h-1.2c-1.7 0-3.2-1.4-3.2-3.2v-.4-3.6-4.8h13.8v-5.2c0-3.8-.1-7.7-.4-9.8-1-6.9-10.5-8-15.4-4.5-1.5 1.1-2.6 2.6-3.3 4.6s-1 4.7-1 8.1v11.4c0 18.9 23 16.3 20 0h-6.1zm-7.4-15.5c0-1.9 1.6-3.5 3.5-3.5h.5c1.9 0 3.5 1.6 3.5 3.5l-.1 4.5h-7.5v-4.5z"/><path d="m-99 101v200h200v-200zm114.2 45.6h7.3v29.7c0 1.6 1.3 2.9 2.9 2.9s2.9-1.3 2.9-2.9v-29.7h7l.1 38.3h-8.9l.1-3.1c-.6 1.2-1.3 2.2-2.2 2.8-.8.6-1.9.9-3 .9-1.3 0-2.3-.3-3.2-.9s-1.5-1.4-1.9-2.4c-.5-1.1-.7-2.1-.8-3.2s-.2-3.3-.2-6.6v-25.8zm-22 .4c1.6-1.3 3.6-1.9 6.1-1.9 2 0 3.7.4 5.3 1.2 1.5.8 2.6 1.8 3.4 3.1.8 1.2 1.3 2.6 1.6 3.9.4 1.4.5 3.4.5 6.3l-.1 9.7c0 3.5-.1 6.2-.4 7.8-.2 1.7-.8 3.2-1.7 4.7-.9 1.4-2 2.4-3.4 3.1s-3 1-4.9 1c-2 0-3.7-.3-5.2-.9-1.3-.6-2.4-1.4-3.2-2.6-.7-1.1-1.3-2.6-1.6-4.3-.3-1.6-.5-4.2-.5-7.5v-10.1c0-3.6.3-6.6.9-8.6s1.6-3.7 3.2-4.9zm-23.3-15.4 5.4 18.6 5.3-18.6v.1h9.1l-9.9 25v29.3h-8.4v-29.3l-10.5-25.1zm88.6 121c0 9.8-8.5 17.8-18.8 17.8h-77.3c-10.3 0-18.8-8-18.8-17.8v-41c0-9.8 8.5-17.8 18.8-17.8h77.3c10.3 0 18.8 8 18.8 17.8z"/></svg>