<svg height="20" viewBox="0 0 16.56 20" width="16.56" xmlns="http://www.w3.org/2000/svg"><path d="m10.36 6.83a1.12 1.12 0 0 0 .12.46.67.67 0 0 0 .27.35.83.83 0 0 0 .46.13.75.75 0 0 0 .43-.13 1 1 0 0 0 .36-.41v.45h1.28v-5.52h-1v4.28a.41.41 0 0 1 -.41.42.42.42 0 0 1 -.42-.42v-4.28h-1v3.72c-.12.47-.1.79-.09.95z"/><path d="m6.56 5.62a6.77 6.77 0 0 0 .07 1.08 1.67 1.67 0 0 0 .23.62 1 1 0 0 0 .46.37 1.93 1.93 0 0 0 .75.13 1.61 1.61 0 0 0 .71-.14 1.17 1.17 0 0 0 .49-.45 1.8 1.8 0 0 0 .24-.67 7.54 7.54 0 0 0 .06-1.13v-1.43a3.48 3.48 0 0 0 -.07-.9 1.85 1.85 0 0 0 -.23-.57 1.24 1.24 0 0 0 -.49-.44 1.6 1.6 0 0 0 -.78-.09 1.32 1.32 0 0 0 -.88.27 1.28 1.28 0 0 0 -.46.71 4.43 4.43 0 0 0 -.13 1.23zm1-2.18a.55.55 0 0 1 .51-.56.54.54 0 0 1 .5.56v2.91a.51.51 0 1 1 -1 0z"/><path d="m4.01 7.84h1.21v-4.22l1.42-3.61h-1.31v-.01l-.76 2.68-.78-2.68h-1.3l1.52 3.62z"/><path d="m14 14a.51.51 0 0 0 -.51-.5h-.07a.51.51 0 0 0 -.5.5v.65h1.08z"/><path d="m9.91 13.26a.45.45 0 0 0 -.49.41v3.12a.45.45 0 0 0 .49.4.47.47 0 0 0 .51-.4v-3.12a.47.47 0 0 0 -.51-.41z"/><path d="m13.85 9h-11.14a2.65 2.65 0 0 0 -2.71 2.53v5.91a2.64 2.64 0 0 0 2.71 2.56h11.14a2.65 2.65 0 0 0 2.71-2.56v-5.91a2.66 2.66 0 0 0 -2.71-2.53zm-10.41 9.07h-1.15v-6.23h-1.15v-.9h3.69v.92h-1.39zm4.12 0h-.92v-.7a1.39 1.39 0 0 1 -1.76.6c-.27-.2-.26-.56-.29-.86s0-.55 0-1.05v-3.28h1.14v3.34.83c.18.49.6.23.7 0a6.35 6.35 0 0 0 0-.81v-3.3h1.13zm3.72-1.51c0 1.34-.78 2.12-2 1l-.06.44h-1v-7.08h1.2v2.08c1.07-.85 1.86-.21 1.86.84zm.71-.36v-1.63a3.73 3.73 0 0 1 .14-1.17 1.31 1.31 0 0 1 .48-.66c.7-.51 2.07-.35 2.22.65a13.36 13.36 0 0 1 .05 1.41v.75h-2v1.27a.47.47 0 0 0 .46.46h.17a.47.47 0 0 0 .46-.46v-.6h.88c.45 2.34-2.85 2.71-2.85-.01z"/></svg>