<svg enable-background="new 0 0 500 208.6" height="208.6" viewBox="0 0 500 208.6" width="500" xmlns="http://www.w3.org/2000/svg" xmlns:xlink="http://www.w3.org/1999/xlink"><linearGradient id="a" gradientUnits="userSpaceOnUse" x1="350.9996" x2="350.9996" y1="0" y2="208.6501"><stop offset="0" stop-color="#e32e28"/><stop offset="1" stop-color="#be2126"/></linearGradient><path d="m497 45s-2.9-20.4-11.8-29.4c-11.4-11.8-24.1-11.9-29.9-12.6-41.7-3-104.3-3-104.3-3h-.1s-62.6 0-104.3 3c-5.8.7-18.5.8-29.9 12.6-8.8 9-11.7 29.4-11.7 29.4s-3 24-3 48v22.5c0 24 3 48 3 48s2.9 20.4 11.8 29.4c11.3 11.8 26.2 11.4 32.9 12.7 23.8 2.3 101.3 3 101.3 3s62.6-.1 104.3-3.1c5.8-.7 18.5-.8 29.9-12.6 8.9-9 11.8-29.4 11.8-29.4s3-24 3-48v-22.5c0-24-3-48-3-48z" fill="url(#a)"/><path d="m186.6 168.9h-19v-11c-7.2 8.2-13.3 12.4-19.9 12.4-5.8 0-9.9-2.7-11.9-7.7-1.2-3-2.1-7.7-2.1-14.7v-79.8h19v74.8 7c.4 2.8 1.6 3.8 4 3.8 3.6 0 6.9-3.2 10.9-8.8v-76.8h19z"/><path d="m119.8 101c0-10.8-2.2-18.9-6-24-5.1-6.9-13-9.7-21-9.7-9 0-15.9 2.8-21 9.7-3.9 5.1-6 13.3-6 24v35.8c0 10.7 1.9 18.1 5.7 23.2 5 6.9 13.2 10.5 21.2 10.5s16.3-3.6 21.4-10.5c3.8-5 5.6-12.4 5.6-23.2v-35.8zm-19 37.9c1 10-2.1 14.9-8 14.9s-9-5-8-14.9v-39.9c-1-10 2.1-14.7 8-14.7s9 4.7 8 14.7z"/><path d="m44.9 114v54.9h-20v-54.9s-20.7-67.3-24.9-79.8h21l14 52.6 13.9-52.6h21z"/><g fill="#fff"><path d="m475.1 121.9v-20.4c0-10.7-2.1-18.5-5.9-23.5-5.1-6.8-12.3-10.4-21.3-10.4-9.2 0-16.4 3.6-21.6 10.4-3.8 5-6.1 13.3-6.1 23.9v34.9c0 10.6 2.5 18 6.3 23 5.2 6.8 12.4 10.2 21.9 10.2 9.4 0 16.9-3.6 21.9-10.8 2.2-3.2 3.6-6.8 4.2-10.8.2-1.8.6-5.9.6-11.8v-2.8h-19c0 7.2 0 11.6-.1 12.5-1 4.8-3.6 7.2-8.1 7.2-6.2 0-8.8-4.6-8.8-13.8v-17.9h36zm-36-25.9c0-9.3 2.6-11.9 8.6-11.9s8.4 2.8 8.4 12v10.9h-17z"/><path d="m391.3 67.5c-6.6 0-13.3 4.1-19.1 11.3v-43.6h-18v133.7h18v-10c6 7.5 12.6 11.3 19 11.3 7.2 0 12.5-3.9 14.9-11.3 1.2-4.2 2-10.7 2-20v-39.9c0-9.4-1.2-15.9-2.4-19.9-2.4-7.5-7.2-11.6-14.4-11.6zm-2.1 72.4c0 10-2.4 13.8-7.6 13.8-3 0-6.4-1.5-9.4-4.6v-60.5c3-3 6.4-4.6 9.4-4.6 5.2 0 7.6 2.9 7.6 12.9z"/><path d="m339.3 168.9h-19v-11c-7.2 8.2-13.3 12.4-19.9 12.4-5.8 0-9.9-2.7-11.9-7.7-1.2-3-2.1-7.7-2.1-14.7v-78.8h19v73.8 7c.4 2.8 1.6 3.8 4 3.8 3.6 0 6.9-3.2 10.9-8.8v-75.8h19z"/><path d="m267.5 168.9h-20v-114.8h-21v-19h62.9v19h-21.9z"/></g></svg>