<svg enable-background="new -99 101 200 200" height="200" viewBox="-99 101 200 200" width="200" xmlns="http://www.w3.org/2000/svg"><path d="m1 101c-55.2 0-100 44.8-100 100s44.8 100 100 100 100-44.8 100-100-44.8-100-100-100zm6.4 41c4.5-5.3 12.1-9.2 18.4-9.5.8 7.3-2.1 14.6-6.5 20-4.3 5.2-11.5 9.4-18.6 8.9-.9-7.2 2.6-14.8 6.7-19.4zm35.7 99.9c-5.3 7.6-10.6 15.1-19.1 15.3-8.4.2-11-4.9-20.6-4.9s-12.5 4.7-20.5 5.1c-8.2.3-14.4-8.2-19.7-15.9-10.7-15.5-19-43.8-7.9-62.9 5.5-9.5 15.2-15.5 25.8-15.6 8.1-.1 15.6 5.5 20.6 5.5s14.2-6.7 23.9-5.8c4 .2 15.5 1.6 22.8 12.4-.6.4-13.6 8-13.4 23.8.2 18.9 16.6 25.1 16.8 25.2-.2.5-2.6 9.1-8.7 17.8z"/></svg>